{"glyphs":{"0":{"ha":679,"x_min":0,"x_max":0,"o":"m 629 481 b 569 240 631 399 610 313 b 474 109 543 192 512 148 b 376 16 441 75 413 46 b 320 8 356 0 342 -7 b 244 64 296 23 264 44 b 93 258 184 120 126 182 b 49 446 66 321 51 394 b 188 837 50 600 98 732 b 299 949 221 875 262 918 b 386 949 339 983 341 977 b 510 833 433 921 477 877 b 629 481 587 731 625 607 m 459 128 b 533 393 516 205 534 299 b 533 454 533 413 535 434 b 425 767 520 564 488 676 b 313 881 394 812 359 851 b 247 871 283 900 272 898 b 157 706 203 823 178 768 b 143 631 149 682 146 656 b 153 464 137 578 141 515 b 341 114 182 329 233 204 b 459 128 396 69 418 72 "},"1":{"ha":476,"x_min":0,"x_max":0,"o":"m 357 123 b 431 65 357 108 385 98 b 374 5 405 36 399 28 b 362 0 370 0 370 -1 b 260 71 358 1 260 62 b 259 229 259 115 259 170 b 259 229 259 229 259 229 b 259 816 259 456 259 785 b 218 786 244 803 227 792 b 104 736 182 762 146 746 b 67 730 96 734 76 729 b 58 742 60 730 62 736 b 71 757 53 751 63 754 b 85 763 74 759 82 762 b 252 910 165 786 215 835 b 270 944 256 917 267 936 b 280 958 276 958 273 958 b 345 958 299 958 331 958 b 359 948 357 958 359 956 b 358 858 359 921 359 890 l 359 858 b 359 841 359 852 359 846 b 357 723 359 800 357 764 b 357 214 357 714 357 420 b 357 214 357 214 357 214 b 357 123 357 183 357 141 "},"2":{"ha":625,"x_min":0,"x_max":0,"o":"m 570 213 b 570 174 579 208 572 184 b 532 50 560 137 544 87 b 497 14 521 18 517 14 b 72 14 373 14 170 14 b 86 66 66 14 71 25 b 267 370 137 200 185 272 b 457 712 319 432 457 555 b 385 855 457 779 436 822 b 200 867 334 889 256 895 b 152 841 185 860 178 855 b 203 940 170 883 186 910 b 222 957 209 949 211 953 b 428 952 282 978 361 979 b 527 615 560 899 601 740 b 444 493 507 581 473 524 b 282 319 379 427 355 392 b 178 165 239 275 203 217 b 153 113 169 150 159 132 b 211 114 163 113 202 114 b 389 112 289 114 311 111 b 424 114 399 112 414 113 b 548 182 474 119 521 126 b 570 213 552 190 558 215 "},"3":{"ha":596,"x_min":0,"x_max":0,"o":"m 465 559 b 508 232 552 499 580 348 b 355 55 472 172 397 98 b 291 0 326 35 319 22 b 13 192 281 3 27 183 b 72 264 13 192 53 244 b 102 251 78 270 88 258 b 273 116 146 218 201 159 b 331 80 291 107 313 90 b 426 190 368 109 402 153 b 400 472 472 263 454 411 b 186 572 348 528 286 572 b 182 572 183 572 183 572 b 182 572 182 572 182 572 b 186 595 182 596 181 590 b 305 671 233 628 257 632 b 350 740 319 689 340 709 b 278 881 369 799 339 873 b 159 853 226 889 191 873 b 119 810 147 845 133 825 b 242 965 114 818 153 940 b 385 948 295 975 336 979 b 435 746 454 906 473 817 b 363 666 418 714 394 693 b 279 615 335 644 291 622 b 370 602 302 613 358 605 b 465 559 417 588 429 583 "},"4":{"ha":674,"x_min":0,"x_max":0,"o":"m 640 352 b 640 305 640 352 640 317 b 600 306 640 305 611 306 b 544 306 581 305 562 306 b 512 304 532 305 524 305 l 505 304 b 505 123 505 211 505 138 b 579 62 505 108 533 89 b 526 5 553 33 551 28 b 517 0 521 0 526 -1 b 408 71 514 1 408 62 b 407 304 408 99 407 196 l 403 304 b 403 306 403 305 403 306 b 365 305 390 306 376 305 b 223 305 336 306 252 305 b 94 305 173 306 143 304 b 69 308 77 306 69 303 l 69 346 b 73 356 69 350 71 353 b 224 584 130 431 186 499 b 284 779 257 655 278 701 b 270 931 288 824 291 890 b 260 958 268 937 262 952 b 424 958 305 958 387 958 b 252 534 414 812 332 656 b 112 352 210 471 117 363 b 402 353 205 352 312 351 b 402 355 402 354 402 355 l 407 355 b 407 673 407 503 407 654 b 499 789 407 673 477 768 b 505 787 502 791 505 790 b 505 352 505 755 505 531 b 567 350 531 352 549 350 b 640 352 579 350 628 354 "},"5":{"ha":610,"x_min":0,"x_max":0,"o":"m 505 564 b 516 235 572 491 581 340 b 384 65 479 175 430 117 b 322 0 358 38 350 22 b 33 192 312 3 47 183 b 93 264 33 192 74 244 b 122 251 99 270 109 258 b 297 119 167 218 225 163 b 355 83 315 110 337 94 b 446 207 393 112 423 170 b 477 302 458 225 477 276 b 263 574 477 463 420 546 b 127 565 212 583 159 573 b 92 553 119 563 107 559 b 104 589 98 573 101 580 b 163 731 124 642 145 686 b 219 892 184 787 198 836 b 231 922 223 902 227 912 b 260 958 239 946 241 958 b 466 958 322 958 404 957 b 531 958 486 958 505 958 b 464 866 524 917 496 866 b 428 865 450 866 441 866 b 307 865 383 865 353 865 b 266 865 294 865 278 865 b 235 842 250 864 241 857 b 187 701 215 790 206 754 b 175 667 186 697 177 676 b 280 675 211 674 253 678 b 454 617 361 666 400 652 b 486 587 463 611 475 600 b 505 564 493 579 498 572 b 505 564 505 564 505 564 l 505 564 "},"6":{"ha":638,"x_min":0,"x_max":0,"o":"m 584 418 b 497 139 592 318 557 217 b 367 17 459 89 414 56 b 301 12 342 -4 331 -5 b 59 366 165 91 81 209 b 203 864 32 553 79 720 b 416 972 264 935 321 974 b 535 919 461 972 503 955 b 548 901 539 913 544 908 b 540 835 562 879 557 847 b 475 854 521 823 492 833 b 451 888 466 865 459 875 b 353 937 420 932 404 948 b 242 855 303 926 272 897 b 159 642 197 790 175 717 b 152 587 156 624 152 605 b 150 555 152 577 150 572 b 170 562 151 547 162 557 b 334 668 226 597 279 632 b 390 706 352 681 370 693 b 584 418 491 627 574 550 m 486 171 b 486 450 526 261 521 363 b 380 583 465 501 429 551 b 268 589 341 608 311 608 b 172 530 231 573 199 548 b 148 462 152 515 146 484 b 198 274 154 391 168 339 b 325 110 227 208 264 146 b 394 91 346 97 361 90 b 486 171 425 91 467 134 "},"7":{"ha":692,"x_min":0,"x_max":0,"o":"m 592 956 b 622 958 595 956 619 961 b 593 903 612 938 600 918 b 372 461 524 756 441 609 b 268 203 336 382 300 284 b 245 112 256 173 249 145 b 282 14 243 97 240 53 b 239 14 267 14 245 14 b 71 14 179 15 131 13 b 35 14 66 15 48 14 b 78 83 39 26 72 73 b 283 424 142 201 217 305 b 500 808 354 552 429 680 b 535 873 509 824 535 873 b 484 874 525 876 496 873 b 397 874 458 875 423 874 b 196 872 331 872 262 875 b 157 871 181 871 172 873 b 93 808 142 870 103 838 b 80 785 90 799 85 793 b 61 770 75 779 66 769 b 54 797 46 774 51 787 b 103 931 69 840 88 888 b 140 958 109 949 122 958 b 173 958 151 958 162 958 b 592 956 278 958 583 958 "},"8":{"ha":625,"x_min":0,"x_max":0,"o":"m 540 408 b 529 166 591 325 582 248 b 467 92 512 138 489 117 b 461 86 465 90 463 88 l 461 86 b 454 80 459 84 456 82 b 325 5 417 49 365 18 b 277 4 309 -1 293 -2 b 82 155 193 39 137 73 b 94 382 28 235 45 304 b 189 483 105 400 172 471 b 225 509 198 490 209 497 l 225 509 b 199 535 217 520 209 526 b 153 576 182 549 168 560 b 142 836 80 654 78 749 b 287 961 179 887 233 935 b 363 964 315 975 334 976 b 508 853 421 939 470 905 b 539 782 523 833 531 810 b 538 693 546 761 544 713 b 486 611 524 651 508 638 b 400 539 460 579 415 551 b 451 498 415 525 437 510 b 540 408 480 474 521 440 m 204 682 b 381 553 261 623 313 597 b 447 614 392 558 432 589 b 475 697 465 643 474 673 b 445 786 476 725 471 752 b 279 916 400 846 348 893 b 224 892 260 922 240 904 b 204 682 146 835 153 734 m 479 142 b 470 313 510 198 505 260 b 406 387 453 340 431 366 b 287 473 369 418 327 445 b 247 499 272 483 261 495 b 164 422 212 483 177 438 b 142 268 127 371 117 325 b 207 176 159 232 178 202 b 330 87 250 136 278 113 b 439 92 349 78 410 64 b 452 105 444 96 448 101 b 479 142 463 120 470 127 "},"9":{"ha":636,"x_min":0,"x_max":0,"o":"m 578 607 b 434 108 605 419 557 252 b 221 0 373 37 316 -1 b 102 53 175 1 134 17 b 89 71 97 59 92 65 b 97 137 75 94 80 126 b 162 119 115 149 145 140 b 186 85 171 107 178 97 b 284 35 217 40 233 24 b 395 118 334 46 365 75 b 477 330 440 182 462 256 b 485 386 481 349 485 367 b 487 417 485 396 487 401 b 466 410 486 425 474 415 b 303 304 411 375 358 340 b 247 266 285 292 267 279 b 52 554 146 345 63 423 b 140 833 45 654 79 755 b 270 956 178 883 223 917 b 336 960 295 977 306 978 b 578 607 471 882 556 764 m 464 442 b 489 504 485 458 491 482 b 439 699 483 575 469 633 b 312 863 409 764 373 827 b 243 881 291 876 276 882 b 152 800 211 881 171 837 b 151 523 112 710 116 609 b 257 390 172 472 208 421 b 369 383 295 365 326 365 b 464 442 406 400 437 425 "},"\u0000":{"ha":0,"x_min":0,"x_max":0,"o":""},"\n":{"ha":0,"x_min":0,"x_max":0,"o":""},"\r":{"ha":0,"x_min":0,"x_max":0,"o":""}," ":{"ha":388,"x_min":0,"x_max":0,"o":""},"!":{"ha":251,"x_min":0,"x_max":0,"o":"m 173 128 b 195 74 187 113 195 95 b 173 21 195 53 188 36 b 125 0 158 7 147 0 b 77 21 103 0 91 7 b 56 74 63 35 56 53 b 78 128 56 95 63 113 b 125 149 92 142 104 149 b 173 128 146 149 158 142 m 111 219 b 83 515 107 315 103 387 b 66 821 63 644 66 784 b 125 972 66 887 70 972 b 184 823 173 972 184 901 b 167 521 184 790 187 651 b 139 219 147 392 145 318 l 111 219 "},"#":{"ha":615,"x_min":0,"x_max":0,"o":"m 575 612 l 429 612 l 396 394 l 544 394 l 540 365 l 392 365 l 339 14 l 311 14 l 363 365 l 219 365 l 166 14 l 138 14 l 191 365 l 36 365 l 40 394 l 195 394 l 228 612 l 72 612 l 76 640 l 232 640 l 280 958 l 308 958 l 260 640 l 405 640 l 453 958 l 481 958 l 433 640 l 579 640 l 575 612 m 401 612 l 256 612 l 223 394 l 368 394 "},"$":{"ha":524,"x_min":0,"x_max":0,"o":"m 448 457 b 463 293 483 410 484 347 b 409 215 452 263 432 236 b 307 118 373 183 348 142 b 291 112 302 114 296 113 l 291 14 l 259 14 l 259 117 b 231 134 249 121 240 127 b 57 249 175 167 70 244 b 38 260 51 252 46 255 b 105 327 59 284 79 310 b 238 231 147 301 189 263 b 305 188 261 220 283 199 b 356 197 339 171 327 169 b 397 242 371 210 386 225 b 388 380 429 290 429 339 b 291 451 359 410 328 433 b 120 569 257 469 139 543 b 113 742 81 621 73 680 b 209 834 137 779 174 807 b 249 861 222 844 236 852 b 259 865 252 863 256 864 l 259 958 l 291 958 l 291 863 b 291 863 291 863 291 863 b 328 843 304 856 315 850 b 431 774 360 828 399 789 b 422 746 440 770 430 754 b 386 709 416 740 391 715 b 361 720 382 704 379 711 b 249 801 320 741 289 779 b 199 791 230 812 216 804 b 183 643 134 740 130 681 b 265 594 209 625 237 609 b 344 546 291 580 318 559 b 448 457 389 524 418 498 "},"%":{"ha":732,"x_min":0,"x_max":0,"o":"m 164 481 b 83 585 132 511 100 544 b 59 686 68 619 60 658 b 134 896 60 769 86 840 b 194 957 151 916 174 939 b 240 957 215 975 216 971 b 307 894 265 941 289 918 b 371 705 348 839 369 772 b 339 575 372 661 361 615 b 287 505 325 549 308 526 b 235 455 270 486 255 471 b 205 450 224 446 217 443 b 164 481 192 459 175 470 m 110 785 b 115 695 107 757 109 723 b 216 507 130 623 158 556 b 279 515 246 483 257 485 b 319 657 310 556 320 607 b 319 690 319 668 320 679 b 261 859 312 749 295 810 b 201 920 244 883 226 904 b 166 915 185 930 179 929 b 117 825 142 889 128 859 b 110 785 113 813 111 799 m 609 449 b 673 260 650 395 671 328 b 641 131 674 216 663 170 b 590 60 627 105 610 81 b 537 10 572 42 557 27 b 507 6 526 1 519 -2 b 466 36 494 14 477 25 b 385 140 434 66 403 99 b 361 241 371 174 363 213 b 436 451 362 324 388 395 b 496 512 454 472 476 495 b 542 512 517 530 518 527 b 609 449 568 496 591 473 m 582 70 b 621 213 613 112 622 162 b 622 246 622 224 623 235 b 563 414 615 305 597 365 b 503 475 547 438 528 459 b 468 470 487 486 481 484 b 420 381 444 444 430 414 b 412 341 415 368 413 354 b 417 251 409 312 411 279 b 519 63 433 178 460 111 b 582 70 548 39 559 40 m 686 955 l 78 11 l 47 11 l 656 955 "},"&":{"ha":797,"x_min":0,"x_max":0,"o":"m 606 508 b 733 378 623 495 733 378 b 373 0 719 369 383 3 b 355 14 355 14 366 6 b 40 382 298 57 40 208 b 357 669 40 537 241 653 b 212 750 285 683 229 718 b 258 956 167 817 179 908 b 395 966 304 984 342 977 b 518 818 484 941 522 826 b 477 861 504 833 490 853 b 359 895 446 881 411 903 b 290 761 297 888 271 820 b 455 676 306 713 367 676 b 455 654 455 676 455 673 b 454 654 455 654 455 654 b 451 654 454 654 453 654 b 402 652 437 654 415 653 b 190 381 308 640 190 507 b 373 33 190 224 280 97 b 606 508 401 68 606 508 "},"'":{"ha":228,"x_min":0,"x_max":0,"o":"m 162 948 b 183 880 176 932 183 909 b 152 767 183 844 173 807 b 78 665 132 727 112 693 l 62 677 b 110 763 84 710 100 738 b 122 830 121 788 122 810 b 115 829 120 829 117 829 b 107 828 112 829 111 828 b 61 847 84 828 74 835 b 42 898 48 860 42 877 b 63 951 42 920 49 938 b 111 972 77 965 89 972 b 162 948 136 972 148 964 "},"(":{"ha":319,"x_min":0,"x_max":0,"o":"m 300 -129 b 110 157 210 -29 149 67 b 53 458 72 248 53 348 b 111 759 53 567 72 667 b 300 1044 150 850 210 945 l 321 1044 b 219 803 277 979 241 899 b 187 458 198 707 187 592 b 219 118 187 326 198 212 b 321 -129 240 24 276 -59 "},")":{"ha":321,"x_min":0,"x_max":0,"o":"m 20 1044 b 210 758 110 944 171 848 b 267 457 248 667 267 567 b 209 157 267 348 248 248 b 20 -129 170 65 109 -30 l -1 -129 b 100 112 43 -64 79 16 b 133 457 122 209 133 323 b 101 797 133 590 122 703 b -1 1044 80 892 44 974 "},"*":{"ha":389,"x_min":0,"x_max":0,"o":"m 348 797 l 218 797 l 310 706 l 296 692 l 204 783 l 204 654 l 184 654 l 184 783 l 92 692 l 78 706 l 170 797 l 40 797 l 40 818 l 170 818 l 78 909 l 92 923 l 184 832 l 184 961 l 204 961 l 204 832 l 296 923 l 310 909 l 218 818 l 348 818 "},"+":{"ha":383,"x_min":0,"x_max":0,"o":"m 346 535 l 205 535 l 205 394 l 177 394 l 177 535 l 36 535 l 36 563 l 177 563 l 177 704 l 205 704 l 205 563 l 346 563 "},",":{"ha":219,"x_min":0,"x_max":0,"o":"m 158 126 b 179 59 172 110 179 87 b 148 -55 179 23 169 -15 b 74 -156 128 -94 107 -128 l 58 -145 b 106 -59 80 -112 96 -83 b 118 8 117 -34 118 -12 b 110 7 116 8 113 7 b 102 7 108 7 107 7 b 57 26 80 7 70 13 b 37 77 44 38 37 55 b 59 130 37 98 45 116 b 107 151 73 144 85 151 b 158 126 132 151 144 143 "},"-":{"ha":332,"x_min":0,"x_max":0,"o":"m 302 580 l 276 518 l 28 518 l 55 580 "},".":{"ha":215,"x_min":0,"x_max":0,"o":"m 155 128 b 177 74 169 113 177 95 b 155 22 177 53 170 36 b 107 0 140 7 129 0 b 59 21 85 0 73 7 b 38 74 45 35 38 53 b 59 128 38 95 45 113 b 107 149 74 142 86 149 b 155 128 128 149 140 142 "},"/":{"ha":294,"x_min":0,"x_max":0,"o":"m 47 -143 l 17 -143 l 233 1031 l 264 1031 "},":":{"ha":229,"x_min":0,"x_max":0,"o":"m 114 149 b 162 128 135 149 147 142 b 184 74 176 113 184 95 b 162 22 184 53 176 36 b 114 0 147 7 136 0 b 66 21 92 0 80 7 b 44 74 52 35 44 53 b 66 128 44 95 52 113 b 114 149 81 142 92 149 m 114 552 b 66 573 92 552 80 559 b 44 626 52 587 44 605 b 66 680 44 647 52 665 b 114 701 81 694 92 701 b 162 680 135 701 147 694 b 184 626 176 665 184 647 b 162 574 184 605 176 588 b 114 552 147 559 136 552 "},";":{"ha":233,"x_min":0,"x_max":0,"o":"m 165 126 b 186 59 179 110 186 87 b 155 -55 186 23 176 -15 b 81 -156 135 -94 114 -128 l 65 -145 b 113 -59 87 -112 103 -83 b 125 8 123 -34 125 -12 b 117 7 123 8 120 7 b 109 7 115 7 114 7 b 64 26 87 7 77 13 b 44 77 51 38 44 55 b 66 130 44 98 52 116 b 114 151 80 144 92 151 b 165 126 139 151 151 143 m 115 552 b 67 573 93 552 81 559 b 46 626 53 587 46 605 b 68 680 46 647 53 665 b 115 701 82 694 94 701 b 163 680 137 701 148 694 b 185 626 178 665 185 647 b 163 574 185 605 178 588 b 115 552 148 559 137 552 "},"=":{"ha":356,"x_min":0,"x_max":0,"o":"m 31 488 l 31 516 l 324 516 l 324 488 m 31 580 l 31 608 l 324 608 l 324 580 "},"?":{"ha":501,"x_min":0,"x_max":0,"o":"m 227 974 b 468 775 276 974 463 947 b 456 713 468 753 463 733 b 260 572 418 615 312 578 b 217 222 243 463 221 302 l 189 222 b 137 627 184 316 156 503 b 149 627 137 627 143 627 b 350 779 226 622 345 646 b 196 955 355 890 277 955 b 188 954 195 955 192 954 b 140 891 171 947 158 917 b 115 857 132 879 125 869 b 51 839 98 836 69 827 b 43 905 33 850 29 882 b 56 922 46 911 51 917 b 195 976 88 958 150 975 b 227 974 206 976 217 975 m 203 153 b 250 131 224 153 235 145 b 272 77 265 116 272 99 b 250 25 272 56 265 39 b 203 3 236 10 224 3 b 154 24 180 3 169 10 b 133 77 140 38 133 56 b 155 131 133 99 140 116 b 203 153 170 145 181 153 "},"@":{"ha":739,"x_min":0,"x_max":0,"o":"m 626 159 b 695 106 626 143 695 106 b 646 45 669 77 671 68 b 633 41 641 41 641 40 b 537 112 630 41 537 103 b 537 204 537 126 537 165 b 534 202 536 204 535 203 b 528 197 531 201 530 199 b 450 129 496 166 485 156 b 371 64 422 105 404 87 b 233 219 307 97 244 141 b 333 433 219 316 262 379 b 490 513 386 474 425 492 b 535 550 525 525 533 527 b 535 550 535 550 535 550 b 439 748 535 700 518 748 b 145 242 325 748 145 492 b 384 -122 145 20 260 -122 b 542 19 479 -122 504 -46 l 625 -53 b 383 -150 567 -104 481 -150 b 49 242 247 -150 49 -18 b 434 768 49 501 275 768 b 624 556 586 768 624 691 l 624 541 l 624 541 b 624 534 624 532 624 550 b 624 467 624 512 624 489 b 624 315 624 414 624 367 l 625 315 b 626 159 625 296 626 168 m 509 220 b 533 275 525 237 533 251 b 532 483 532 345 533 412 b 532 507 532 490 532 499 b 366 392 462 494 401 445 b 344 222 332 340 321 280 b 450 174 364 169 398 152 b 509 220 477 186 485 199 "},"A":{"ha":607,"x_min":0,"x_max":0,"o":"m 587 937 b 499 819 531 924 499 868 b 500 412 501 679 499 552 b 499 167 500 331 500 248 b 500 167 499 167 499 167 b 499 147 500 165 499 149 b 512 131 499 138 498 140 b 569 101 525 123 555 109 b 588 86 574 98 591 90 b 542 4 570 55 554 27 b 515 5 537 -4 521 1 b 456 34 508 10 466 28 b 390 83 400 65 390 71 b 390 128 390 85 390 106 b 389 237 390 164 389 201 b 390 442 390 306 391 374 b 390 449 390 445 390 447 b 285 448 358 449 318 448 b 171 446 254 448 199 447 b 158 446 171 446 163 446 b 158 412 158 433 158 416 b 157 65 158 296 157 181 b 157 14 157 51 159 28 l 48 14 b 48 52 48 14 48 47 b 47 237 50 114 47 176 b 48 454 48 301 49 391 b 48 455 48 454 48 454 b 74 690 49 525 59 621 b 181 897 92 772 122 837 b 327 958 195 911 241 958 b 387 958 364 958 358 958 l 591 958 b 587 937 591 950 592 938 m 390 816 b 391 862 390 829 391 847 b 391 861 391 861 391 861 b 390 877 391 877 390 867 b 331 933 390 927 348 933 b 282 928 324 933 290 931 b 240 908 270 924 251 916 b 158 626 187 873 158 778 b 158 513 158 582 158 573 b 186 513 171 513 179 513 b 359 516 233 514 312 515 b 390 517 366 516 380 516 b 390 816 390 617 391 716 "},"B":{"ha":651,"x_min":0,"x_max":0,"o":"m 569 454 b 630 275 611 401 630 342 b 331 1 630 135 507 0 b 198 14 319 1 210 13 l 92 14 b 92 52 92 14 92 47 b 91 237 93 114 90 176 b 92 442 92 306 92 374 b 92 816 92 567 93 691 b 92 865 92 832 93 850 b 41 933 89 898 76 922 b 17 938 32 936 29 935 b 17 958 17 947 13 958 l 201 958 l 201 863 b 292 916 233 879 265 901 b 388 972 325 934 352 954 b 542 775 475 943 537 861 b 496 639 544 726 530 674 b 420 580 472 612 453 596 b 388 565 407 574 402 571 b 437 551 411 560 421 556 b 569 454 497 533 530 505 m 221 844 b 201 817 210 838 204 828 b 201 529 202 721 202 625 b 220 535 209 531 217 534 b 347 580 266 550 304 560 b 445 771 421 615 460 693 b 250 862 428 859 333 910 b 221 844 241 857 230 848 m 464 125 b 472 415 503 208 506 336 b 323 529 437 496 386 529 b 242 512 288 528 276 524 b 201 472 224 505 208 492 b 202 412 201 452 201 432 b 201 84 202 302 201 194 b 331 36 220 71 260 36 b 464 125 392 36 444 80 "},"C":{"ha":567,"x_min":0,"x_max":0,"o":"m 540 136 b 542 120 547 131 547 127 b 470 12 525 96 488 39 b 415 0 467 8 436 0 b 189 63 326 -1 264 13 b 25 358 73 141 42 222 b 84 651 13 451 43 571 b 243 869 125 730 164 790 b 260 886 247 872 257 882 b 261 886 260 886 261 886 b 344 965 295 918 321 947 b 380 962 359 977 363 973 b 560 819 432 928 519 853 b 484 736 560 819 504 758 b 443 770 466 748 457 760 b 321 869 407 800 353 842 b 279 868 302 885 298 884 b 173 739 236 829 202 787 b 126 360 106 628 94 484 b 392 117 162 222 245 140 b 504 122 419 112 472 109 b 540 136 518 127 528 129 "},"D":{"ha":646,"x_min":0,"x_max":0,"o":"m 591 699 b 610 415 624 614 620 507 b 513 144 604 337 553 209 b 333 5 472 77 395 19 b 285 1 306 0 312 1 b 196 16 242 1 218 16 b 117 0 149 15 121 -1 b 116 19 116 4 116 13 b 118 380 117 140 117 260 b 117 627 118 459 117 548 b 116 658 117 637 117 647 b 69 745 114 706 111 716 b 166 795 86 755 150 786 b 222 821 183 804 219 821 b 229 790 230 818 229 808 b 227 267 229 680 228 435 b 227 182 227 215 226 234 b 227 139 227 168 227 156 b 293 33 227 70 261 34 b 472 166 359 33 426 87 b 538 413 514 239 538 332 b 524 565 538 467 534 517 b 424 757 509 638 475 701 b 244 852 373 812 318 842 b 58 845 180 862 119 860 b 8 832 44 842 34 837 b 82 946 24 867 59 917 b 111 965 89 954 101 964 b 437 897 235 975 328 967 b 591 699 514 848 559 782 "},"E":{"ha":613,"x_min":0,"x_max":0,"o":"m 333 519 b 199 519 295 519 240 519 b 221 460 200 516 220 463 l 99 463 b 49 633 92 493 50 627 b 281 875 80 675 224 817 b 378 967 323 913 352 946 b 414 964 394 979 397 975 b 598 821 466 931 556 856 b 522 738 598 821 542 760 b 480 772 504 750 495 763 b 355 878 444 802 387 851 b 320 877 337 894 339 893 b 164 665 272 839 176 694 b 185 581 168 641 181 596 b 383 584 253 581 370 584 b 491 634 401 584 462 628 b 414 473 469 584 438 505 b 333 519 386 489 361 519 m 598 184 b 581 139 604 177 585 146 b 521 31 562 104 539 66 b 479 1 511 12 501 1 b 210 46 343 1 277 26 b 62 27 139 67 93 44 b 23 4 49 20 37 11 b 10 9 20 2 13 5 b 10 23 8 12 8 19 b 30 56 15 31 23 49 b 128 228 76 108 106 162 b 121 391 146 285 139 336 b 99 463 114 415 106 439 l 221 460 b 236 400 227 439 231 421 b 206 252 249 346 232 298 b 148 164 188 221 169 194 b 89 84 144 159 122 125 b 164 124 115 94 141 114 b 302 143 204 140 259 150 b 399 112 336 137 366 121 b 545 150 440 102 502 106 b 579 177 552 158 572 171 b 598 184 582 180 592 192 "},"F":{"ha":557,"x_min":0,"x_max":0,"o":"m 289 873 b 130 657 241 834 142 687 b 157 573 134 633 153 588 b 349 576 226 573 336 576 b 456 627 367 576 428 620 b 379 465 434 576 404 497 b 298 511 351 481 326 511 b 179 515 286 511 232 513 b 179 413 179 487 179 428 b 178 171 179 333 178 251 b 179 171 178 171 178 171 b 178 163 179 169 178 165 b 194 132 178 146 179 141 b 240 108 208 124 227 115 b 259 92 246 105 263 97 b 188 15 237 67 212 37 b 163 5 175 3 178 -6 b 120 28 156 10 127 24 b 69 94 66 65 69 67 b 69 106 69 95 69 100 b 69 108 69 107 69 108 b 69 128 69 115 69 122 b 69 153 69 137 69 146 b 69 153 69 153 69 153 b 68 211 68 173 68 192 b 68 238 68 219 68 228 b 69 296 68 257 69 277 b 69 443 69 345 69 394 b 69 493 69 457 69 481 b 21 631 54 542 21 628 b 250 873 53 674 193 816 b 344 966 292 912 317 945 b 380 963 359 978 363 974 b 564 820 432 929 522 855 b 487 737 564 820 507 759 b 446 771 470 749 460 762 b 321 877 410 801 353 850 b 289 873 302 893 308 888 "},"G":{"ha":633,"x_min":0,"x_max":0,"o":"m 567 202 b 610 90 567 138 574 138 b 379 0 570 50 458 0 b 166 70 301 0 234 16 b 28 361 70 144 42 241 b 81 655 16 455 39 574 b 240 869 121 734 161 790 b 340 962 282 907 313 941 b 376 959 356 974 359 970 b 557 815 428 925 515 850 b 480 733 557 815 500 754 b 439 767 463 744 453 757 b 317 866 403 797 349 839 b 275 865 299 881 294 881 b 164 733 227 826 196 785 b 109 367 97 622 79 492 b 348 103 145 222 224 118 b 354 101 350 102 353 102 b 360 101 355 101 359 101 b 459 161 392 97 459 95 b 459 445 459 181 459 380 b 425 474 459 477 456 473 b 192 476 355 478 262 474 b 153 476 176 477 168 476 b 154 502 153 476 153 502 b 187 502 166 502 161 503 b 214 502 202 501 198 502 b 432 502 303 502 342 502 b 566 542 447 502 553 543 b 567 473 566 517 567 492 b 567 202 567 407 566 269 "},"H":{"ha":685,"x_min":0,"x_max":0,"o":"m 647 108 b 665 92 652 105 670 98 b 594 15 644 68 618 37 b 570 5 581 3 584 -5 b 526 29 563 10 533 24 b 476 94 472 65 476 68 b 476 103 476 95 476 98 b 475 105 475 104 475 104 b 475 160 475 124 475 143 b 475 168 475 164 475 167 b 475 169 475 169 475 169 b 475 413 475 252 474 320 b 474 652 475 492 475 572 b 474 653 474 652 474 653 b 467 669 474 664 473 670 b 306 583 418 645 314 588 b 207 523 273 564 240 544 l 207 523 b 201 509 203 521 201 517 b 202 413 201 477 201 445 b 201 153 202 326 201 239 b 217 133 202 144 206 139 b 263 108 230 125 249 116 b 281 92 268 105 286 98 b 210 15 260 68 234 37 b 186 5 198 3 201 -5 b 142 29 179 10 149 24 b 92 94 88 65 92 68 b 92 97 92 95 92 96 b 92 97 92 97 92 97 b 92 103 92 99 92 101 b 91 168 92 123 91 165 b 92 171 91 169 91 170 b 91 238 91 189 91 209 b 92 443 92 306 92 375 b 92 817 92 568 93 692 b 92 866 92 833 93 850 b 41 934 89 899 76 923 b 17 939 32 937 29 936 b 17 959 17 948 13 959 l 201 959 l 201 841 b 201 841 201 841 201 841 b 201 833 201 838 201 836 b 201 571 202 746 202 658 b 211 559 202 562 204 555 l 210 558 b 241 574 222 564 232 569 b 466 700 266 588 425 675 l 466 700 b 475 724 473 705 475 717 b 475 724 475 724 475 724 b 475 833 475 760 475 797 b 475 841 475 836 475 838 b 475 841 475 841 475 841 l 475 959 l 659 959 b 659 939 663 959 659 948 b 635 934 647 936 644 937 b 584 866 601 923 587 899 b 584 817 583 850 584 833 b 584 443 583 692 584 568 b 585 238 584 375 584 306 b 585 171 585 216 585 193 b 585 171 585 171 585 171 b 585 164 585 169 585 166 b 585 161 585 163 585 162 b 585 159 585 160 585 159 b 601 133 585 145 587 141 b 647 108 614 125 633 116 "},"I":{"ha":301,"x_min":0,"x_max":0,"o":"m 263 108 b 282 92 269 105 286 98 b 211 15 260 68 235 37 b 186 5 198 3 201 -5 b 142 29 179 10 150 24 b 92 94 89 65 92 68 b 92 107 92 95 92 100 b 92 108 92 108 92 108 b 92 129 92 116 92 123 b 92 168 92 147 92 166 b 92 170 92 169 92 169 b 91 238 91 188 91 205 b 92 444 92 307 92 375 b 92 818 92 568 93 693 b 92 866 92 833 93 851 b 41 934 89 899 76 924 b 17 939 32 937 29 936 b 17 959 17 948 13 959 b 273 959 45 959 244 959 b 265 938 273 951 271 939 b 201 834 209 925 200 882 b 202 413 202 693 201 553 b 201 171 202 332 201 252 b 202 171 201 171 201 171 b 201 164 202 169 201 166 b 217 133 201 147 202 142 b 263 108 231 125 250 116 "},"J":{"ha":561,"x_min":0,"x_max":0,"o":"m 438 581 b 512 307 457 507 508 379 b 464 115 516 242 501 168 b 265 1 413 44 344 7 b 27 160 167 -7 51 53 b 30 257 20 191 21 226 b 120 331 43 297 78 327 b 181 295 148 334 176 317 b 155 232 186 277 183 242 b 103 217 137 225 122 221 b 73 172 75 210 73 200 b 94 112 73 152 83 128 b 235 37 126 65 184 40 b 369 88 290 35 333 47 b 402 234 401 124 406 166 b 351 426 399 282 368 370 b 312 587 329 496 323 514 b 425 812 299 671 354 735 b 429 818 428 815 426 815 b 336 870 385 851 362 858 b 163 899 283 891 214 914 b 81 801 106 883 77 846 b 148 745 85 765 111 743 b 192 754 162 745 179 753 b 228 752 206 755 215 755 b 255 715 244 747 255 732 b 229 676 255 698 244 682 b 131 680 196 662 163 663 b 94 911 43 724 27 838 b 225 972 129 950 172 971 b 346 945 268 974 303 959 b 507 972 409 926 449 929 b 540 933 511 970 540 933 b 418 709 485 870 424 797 b 438 581 415 661 425 627 "},"K":{"ha":707,"x_min":0,"x_max":0,"o":"m 636 128 b 711 127 643 128 700 143 b 542 0 679 100 565 14 b 467 124 526 19 494 83 b 269 465 427 185 285 438 b 216 400 252 446 231 418 b 202 381 214 398 206 388 b 201 65 202 275 201 171 b 201 15 201 52 202 29 b 92 15 167 15 92 15 b 91 237 93 77 90 176 b 92 443 92 306 92 374 b 92 817 92 568 93 692 b 92 865 92 832 93 850 b 41 933 89 898 76 923 b 17 938 32 936 29 936 b 17 958 17 948 13 958 b 262 958 45 958 234 958 b 255 937 262 950 260 939 b 201 833 199 924 200 882 b 202 432 202 699 201 566 b 477 788 255 498 400 684 b 504 822 485 799 496 811 b 511 865 523 847 536 864 b 393 864 482 865 422 865 b 351 864 386 864 358 864 b 355 884 346 864 349 872 b 400 945 367 905 386 926 b 420 958 405 952 411 958 b 644 959 483 959 635 959 b 619 922 641 947 624 928 b 355 576 619 922 364 587 b 347 553 344 562 343 560 b 482 314 388 478 438 388 b 552 200 504 276 519 244 b 636 128 574 170 596 125 "},"L":{"ha":611,"x_min":0,"x_max":0,"o":"m 610 208 b 593 162 616 200 597 170 b 530 31 575 127 547 66 b 488 1 520 11 509 1 b 233 46 351 1 300 26 b 61 27 161 66 91 43 b 22 3 47 20 35 10 b 9 9 19 2 11 5 b 8 22 7 12 6 19 b 28 56 14 31 21 48 b 140 228 75 108 118 162 b 140 398 158 285 158 342 b 118 470 133 421 125 445 b 86 595 111 499 93 566 b 118 810 72 659 78 747 b 151 849 117 810 141 840 b 184 882 151 849 180 879 b 270 967 226 920 243 946 b 305 964 285 979 288 975 b 493 817 358 930 451 852 b 420 734 493 817 440 756 b 382 768 402 746 396 759 b 266 866 346 799 298 840 b 219 881 247 882 238 897 b 159 816 191 859 177 842 b 157 766 150 801 153 785 b 157 766 157 766 157 766 b 204 588 161 728 190 639 b 240 470 205 588 239 472 b 255 406 246 449 250 427 b 218 252 267 353 244 297 b 160 164 201 221 181 193 b 87 83 156 159 120 125 b 183 130 114 94 159 121 b 307 143 223 146 265 150 b 428 117 341 137 380 123 b 592 201 490 109 523 118 b 610 208 594 204 604 216 "},"M":{"ha":1008,"x_min":0,"x_max":0,"o":"m 972 108 b 990 92 978 105 995 97 b 923 15 969 67 947 37 b 898 5 910 3 913 -6 b 855 28 891 10 862 24 b 804 94 801 64 804 67 b 804 94 804 94 804 94 b 804 96 804 95 804 95 b 804 168 804 109 804 164 b 804 171 804 169 804 170 b 804 238 804 190 803 209 b 805 443 805 306 805 375 b 805 793 804 560 805 676 l 805 793 l 805 830 b 805 863 805 841 805 853 l 805 931 b 735 887 783 918 752 899 b 588 782 685 853 638 816 b 555 735 570 770 558 755 b 555 689 555 720 555 704 b 555 688 555 689 555 688 b 555 688 555 688 555 688 b 555 413 556 596 555 505 b 555 65 556 296 555 181 b 555 15 555 52 556 29 l 446 15 b 445 238 447 76 444 176 b 446 443 446 306 446 375 b 446 793 446 560 446 676 l 446 793 l 446 830 b 446 863 446 841 447 853 l 446 933 b 376 887 424 920 393 899 b 229 782 327 853 279 816 b 201 752 217 774 207 764 b 202 413 202 639 201 526 b 201 65 202 296 201 181 b 201 15 201 52 202 29 l 92 15 b 91 238 93 76 90 176 b 92 443 92 306 92 375 b 92 817 92 568 93 692 b 92 865 92 832 93 850 b 41 934 89 899 76 923 b 17 938 32 936 29 936 b 17 958 17 948 13 958 l 201 958 l 201 854 b 201 853 201 854 201 854 b 201 833 201 847 201 840 b 201 798 201 821 201 810 b 206 800 203 799 204 799 b 255 831 227 810 240 820 b 410 940 307 867 358 905 b 446 958 421 947 434 958 l 555 958 l 555 854 b 555 853 555 854 555 854 b 555 833 555 847 555 840 b 555 796 555 821 555 808 b 565 800 558 797 561 799 b 614 831 586 810 599 820 b 769 940 666 867 717 905 b 805 958 780 947 793 958 l 914 958 l 914 854 b 914 853 914 854 914 854 b 914 833 914 847 914 840 b 914 413 915 693 914 553 b 914 151 915 325 914 238 b 929 132 915 143 919 139 b 972 108 943 124 958 115 "},"N":{"ha":674,"x_min":0,"x_max":0,"o":"m 637 108 b 655 92 643 105 660 97 b 588 15 634 67 612 37 b 563 5 575 3 578 -6 b 520 28 556 10 527 24 b 470 94 466 65 470 67 b 470 113 470 95 470 103 b 469 113 469 113 469 113 b 469 119 469 115 469 117 b 469 168 469 140 469 165 b 469 170 469 169 469 170 b 469 238 469 188 468 204 b 470 443 470 306 470 375 b 469 793 469 560 470 676 l 470 793 l 470 830 b 470 863 470 841 470 853 l 470 930 b 400 887 448 917 417 899 b 221 771 350 853 270 805 b 201 754 211 765 205 760 b 202 413 202 640 201 527 b 201 65 202 296 201 181 b 201 15 201 52 202 29 l 92 15 b 91 238 92 76 90 176 b 92 443 92 306 92 375 b 92 817 92 568 93 692 b 92 865 92 832 93 850 b 41 934 89 899 76 923 b 17 938 32 936 29 936 b 17 958 17 948 13 958 l 201 958 l 201 854 b 201 853 201 854 201 854 b 201 833 201 847 201 840 b 201 793 201 820 201 806 b 205 794 202 793 204 793 b 262 827 226 804 246 818 b 434 937 315 859 382 901 b 470 958 444 944 460 958 l 579 958 l 579 854 b 579 853 579 854 579 854 b 579 833 579 847 578 840 b 579 413 580 693 579 553 b 579 171 579 332 579 251 b 579 171 579 171 579 171 b 579 166 579 170 579 168 b 579 153 579 162 579 158 b 595 132 579 144 583 139 b 637 108 608 124 623 115 "},"O":{"ha":661,"x_min":0,"x_max":0,"o":"m 496 864 b 635 450 586 752 640 634 b 516 157 633 357 589 252 b 359 13 472 99 415 57 b 291 11 337 -4 315 -4 b 112 189 216 55 157 116 b 58 297 91 223 74 260 b 25 521 27 368 20 443 b 81 711 30 588 53 651 b 252 919 120 795 183 860 b 303 956 266 932 286 947 b 382 958 337 976 349 979 b 496 864 422 933 466 901 m 537 349 b 539 403 539 367 539 385 b 475 682 537 503 516 592 b 320 889 440 760 387 837 b 249 886 291 912 279 917 b 121 605 175 810 125 714 b 174 331 117 510 136 419 b 352 99 213 238 269 158 b 427 98 383 78 399 73 b 496 191 456 123 479 157 b 537 349 520 240 533 295 "},"P":{"ha":569,"x_min":0,"x_max":0,"o":"m 560 770 b 513 591 565 718 543 632 b 404 469 482 550 444 502 b 291 387 390 458 309 401 b 291 387 291 387 291 387 b 202 332 269 373 228 349 b 201 153 202 272 201 213 b 217 133 202 144 206 140 b 259 108 230 125 246 116 b 278 92 265 105 283 98 b 210 15 257 68 234 37 b 186 5 198 3 201 -5 b 142 29 179 10 149 24 b 92 94 88 65 92 68 b 92 113 92 96 92 103 b 92 113 92 113 92 113 b 92 116 92 114 92 115 b 91 168 92 137 91 166 b 92 171 91 169 91 170 b 91 238 91 189 91 204 b 92 444 92 307 92 375 b 92 818 92 568 93 693 b 92 866 92 833 93 851 b 41 934 89 899 76 924 b 17 939 32 937 29 936 b 17 959 17 948 13 959 l 201 959 l 201 855 b 201 854 201 854 201 854 b 201 837 201 848 201 842 b 201 837 201 837 201 837 b 235 849 217 832 226 842 b 361 947 277 882 319 915 b 454 950 405 982 409 982 b 560 770 517 906 553 846 m 439 590 b 447 798 470 644 472 743 b 277 851 413 873 337 893 b 222 813 259 838 241 825 b 201 792 212 807 206 800 b 202 413 202 666 201 540 b 202 367 202 398 202 382 b 240 388 216 374 233 384 b 379 494 291 421 338 450 b 439 590 401 519 423 560 "},"Q":{"ha":676,"x_min":0,"x_max":0,"o":"m 642 94 b 636 8 647 57 645 21 b 614 0 631 2 622 1 b 464 61 555 -2 500 6 b 446 84 460 67 452 77 b 446 84 446 84 446 84 b 359 13 418 59 388 36 b 291 11 337 -4 315 -4 b 112 189 216 55 157 116 b 58 297 91 223 74 260 b 25 521 27 368 20 443 b 81 711 30 588 53 651 b 252 919 120 795 183 860 b 303 956 266 932 286 947 b 382 958 337 976 349 979 b 496 864 422 933 466 901 b 635 450 586 752 640 634 b 516 157 633 357 589 252 b 496 132 510 148 503 140 b 501 127 497 130 499 128 b 642 94 542 76 592 85 m 352 99 b 427 98 383 78 399 73 b 434 105 429 100 432 102 b 385 221 422 134 399 196 b 329 260 374 242 353 257 b 291 264 317 261 303 262 b 275 277 281 265 274 265 b 307 285 275 289 296 286 b 355 276 327 283 337 282 b 438 214 394 264 417 249 b 477 157 445 204 463 176 b 496 191 484 168 491 180 b 537 349 520 240 533 295 b 539 403 539 367 539 385 b 475 682 537 503 516 592 b 320 889 440 760 387 837 b 249 886 291 912 279 917 b 121 605 175 810 125 714 b 174 331 117 510 136 419 b 352 99 213 238 269 158 "},"R":{"ha":636,"x_min":0,"x_max":0,"o":"m 622 116 b 636 116 626 116 626 116 b 552 2 632 109 571 22 b 541 2 549 -2 545 0 b 456 63 510 18 472 29 b 284 443 408 165 292 430 b 202 393 264 430 228 409 b 201 171 202 318 201 245 b 201 171 201 171 201 171 b 201 164 201 169 201 166 b 201 154 201 161 201 157 b 217 132 202 144 205 139 b 260 108 230 124 246 115 b 278 91 265 105 283 97 b 211 15 257 67 234 37 b 186 5 198 3 201 -6 b 142 28 179 10 149 24 b 92 94 89 64 92 67 b 92 101 92 94 92 97 b 92 101 92 101 92 101 b 92 112 92 105 92 109 b 91 168 92 133 92 165 b 92 170 91 168 91 169 b 91 237 91 188 91 207 b 92 443 92 306 92 374 b 92 817 92 568 93 692 b 92 865 92 832 93 850 b 41 934 89 898 76 923 b 17 938 32 936 29 936 b 17 958 17 948 13 958 l 201 958 l 201 854 b 201 853 201 854 201 853 b 201 836 201 847 201 842 b 201 836 201 836 201 836 b 235 848 217 831 226 841 b 361 947 277 881 319 914 b 454 949 405 981 409 982 b 560 769 517 905 553 845 b 513 624 565 718 543 665 b 388 517 482 583 428 549 b 380 474 362 496 365 506 b 522 172 426 384 476 262 b 622 116 541 135 563 117 m 235 444 b 379 548 286 476 338 503 b 439 630 401 573 423 600 b 447 798 470 683 472 742 b 277 850 413 872 337 892 b 222 813 259 838 241 824 b 201 791 212 807 206 799 b 202 425 202 669 201 547 b 235 444 215 432 229 440 "},"S":{"ha":589,"x_min":0,"x_max":0,"o":"m 262 18 b 6 192 190 61 6 192 b 113 259 34 223 60 258 b 325 108 169 226 296 123 b 403 98 361 91 374 69 b 453 148 423 114 436 128 b 447 354 495 211 493 295 b 325 453 410 399 373 429 b 111 603 280 481 136 569 b 104 810 60 670 52 729 b 235 929 138 862 194 898 b 294 965 252 942 277 954 b 333 967 310 975 317 975 b 534 833 351 958 498 853 b 432 779 540 829 483 758 b 269 891 426 773 320 862 b 210 882 244 905 232 899 b 145 817 178 857 160 841 b 139 754 133 797 135 774 b 179 696 144 732 155 715 b 393 554 213 673 359 571 b 534 429 450 521 495 482 b 547 218 579 367 574 288 b 462 113 529 177 493 141 b 343 14 416 71 396 46 b 262 18 310 -6 293 -4 "},"T":{"ha":643,"x_min":0,"x_max":0,"o":"m 641 916 b 646 907 643 913 646 909 b 569 760 620 869 598 807 b 360 865 477 783 418 846 b 195 662 313 822 250 761 b 149 511 170 609 156 556 b 231 180 130 383 148 279 b 422 79 284 117 327 86 b 552 126 502 74 540 118 l 553 118 b 338 0 528 62 477 0 b 238 23 308 0 272 6 b 107 134 177 52 148 79 b 35 339 59 198 41 261 b 151 686 24 473 90 594 b 328 877 194 746 304 858 b 216 895 328 877 275 902 b 37 781 129 882 51 795 b 52 818 39 800 49 812 b 257 968 88 881 168 958 b 381 961 303 976 337 973 b 497 908 409 954 471 918 b 631 916 537 894 592 896 b 641 916 634 917 638 916 "},"U":{"ha":675,"x_min":0,"x_max":0,"o":"m 637 108 b 655 91 642 105 660 97 b 584 14 634 67 608 36 b 560 5 572 3 575 -6 b 516 28 553 10 523 23 b 465 94 462 64 465 67 b 465 168 465 98 466 163 b 465 169 465 168 465 169 b 433 151 458 166 439 155 b 249 12 374 106 308 57 b 195 14 233 0 224 -8 b 98 102 163 39 123 71 b 31 292 55 157 35 220 b 104 589 26 397 50 499 b 183 714 130 633 157 670 b 249 831 199 743 237 801 b 220 858 259 856 250 858 b 122 857 192 858 154 857 b 61 857 106 857 83 856 b 110 958 74 885 104 958 b 297 958 162 958 245 958 b 328 958 305 958 315 958 b 317 922 325 946 320 930 b 218 712 286 852 253 777 b 183 622 203 683 195 652 b 130 377 151 543 131 462 b 188 178 129 304 148 238 b 204 158 193 171 198 165 b 368 139 252 103 310 95 b 416 175 386 152 398 161 b 465 262 445 197 465 220 b 465 262 465 262 465 262 b 466 443 466 322 466 382 b 466 817 466 568 467 692 b 466 865 466 832 467 850 b 415 933 463 898 449 923 b 391 938 406 936 403 936 b 391 958 391 948 387 958 l 646 958 b 639 937 646 950 644 939 b 575 833 583 924 574 882 b 575 412 576 692 575 553 b 575 168 576 330 575 249 l 575 168 b 575 163 575 166 575 164 b 591 132 574 146 576 141 b 637 108 604 124 623 115 "},"V":{"ha":738,"x_min":0,"x_max":0,"o":"m 707 654 b 655 335 729 541 700 437 b 456 57 608 228 533 141 b 409 9 441 40 426 24 b 369 19 393 -6 377 -2 b 316 169 351 69 333 119 b 206 485 279 274 243 380 b 114 746 176 572 145 659 b 67 871 101 783 80 834 b 46 909 62 886 55 899 b 46 909 46 909 46 909 b 13 933 34 922 20 931 b -11 938 5 936 2 936 b -10 958 -11 948 -15 958 l 124 958 b 124 958 124 958 124 958 b 127 958 125 958 126 958 b 160 931 145 958 154 946 b 225 763 180 879 207 815 b 284 593 246 707 264 650 b 423 218 330 468 377 343 b 451 151 432 195 440 173 b 488 148 460 134 477 132 b 560 260 513 185 537 222 b 590 320 571 279 581 299 b 629 479 612 371 626 425 b 545 760 632 569 597 682 b 416 882 512 812 473 858 b 389 895 410 885 398 889 b 412 915 396 904 405 909 b 488 967 434 932 465 952 b 523 962 497 974 509 976 b 595 892 551 937 569 919 b 610 876 598 890 608 878 b 707 654 662 818 694 726 "},"W":{"ha":1144,"x_min":0,"x_max":0,"o":"m 1120 634 b 1066 365 1126 539 1107 450 b 897 107 1021 272 963 187 b 823 22 873 79 848 50 b 805 4 817 16 811 9 b 778 9 796 -3 783 -1 b 770 27 775 15 772 21 b 697 236 746 97 721 166 b 646 387 680 286 663 337 b 628 432 641 402 636 415 b 560 315 602 401 580 351 b 502 206 541 279 522 242 b 440 100 482 171 462 135 b 389 7 423 71 408 40 b 366 6 384 -2 372 -2 b 358 18 362 10 360 14 b 238 368 318 135 278 252 b 126 689 201 475 163 582 b 70 850 108 739 88 799 b 60 879 67 859 64 869 b 58 885 59 881 59 883 b 58 885 58 885 58 885 b 54 894 57 888 55 891 b 13 933 42 920 22 931 b -11 938 5 936 2 936 b -10 958 -11 948 -15 958 l 121 958 b 156 933 139 959 150 950 b 189 836 166 901 178 868 b 318 461 230 714 276 583 b 412 189 349 370 381 280 b 415 179 413 186 413 181 b 434 165 421 174 427 167 b 450 175 439 164 447 170 b 485 238 463 195 474 217 b 591 438 520 305 554 372 b 601 526 608 467 612 495 b 515 774 572 609 544 691 b 485 851 506 800 495 825 b 471 878 481 861 476 870 b 472 881 471 879 472 880 b 471 878 472 880 471 879 b 386 933 447 910 396 930 b 362 938 377 936 374 936 b 362 958 362 948 358 958 l 541 958 b 541 958 541 958 541 958 b 548 958 543 958 546 958 b 575 914 560 958 562 948 b 654 691 602 839 628 765 b 749 424 686 602 718 513 b 837 156 779 335 808 245 b 860 103 842 140 854 120 b 873 117 870 111 870 113 b 970 281 909 171 945 220 b 1016 401 986 321 1005 359 b 1015 680 1039 495 1045 588 b 853 871 988 767 939 836 b 832 879 847 873 838 876 b 927 972 850 901 911 968 b 959 950 932 975 956 952 b 1077 807 1012 908 1043 871 b 1120 634 1105 756 1116 691 "},"X":{"ha":696,"x_min":0,"x_max":0,"o":"m 679 128 b 699 119 692 129 694 125 b 615 0 670 74 641 36 b 481 87 552 9 511 45 b 340 382 434 185 387 285 b 318 423 335 391 326 410 b 293 387 308 413 298 396 b 107 95 234 290 166 191 b 60 14 56 12 67 14 b 5 14 53 14 18 15 b 75 110 13 29 23 26 b 283 433 137 213 219 332 b 287 491 302 463 297 471 b 121 835 236 602 174 726 b 109 860 114 849 116 846 b 75 905 103 872 84 897 b 76 907 75 905 76 906 b 21 933 53 923 28 931 b -3 938 13 936 10 936 b -2 958 -3 948 -6 958 l 132 958 b 132 958 132 958 132 958 b 171 958 146 958 159 958 b 199 933 189 958 192 949 b 326 642 243 838 282 737 b 366 561 338 617 351 590 b 430 656 392 591 412 627 b 597 926 486 744 542 838 b 618 958 602 935 611 952 b 655 958 618 958 641 958 b 641 935 654 954 643 939 b 402 553 594 861 435 601 b 393 506 388 533 382 529 b 454 380 412 466 435 420 b 532 229 479 329 506 279 b 558 181 540 214 549 195 b 679 128 580 147 636 125 "},"Y":{"ha":694,"x_min":0,"x_max":0,"o":"m 605 855 b 664 536 663 750 678 654 b 535 205 649 413 601 306 b 147 -151 436 53 309 -67 b 77 -182 124 -163 100 -173 b -9 -159 42 -197 14 -190 b -61 -93 -23 -140 -39 -122 b -7 -90 -36 -92 -22 -90 b 136 -80 41 -90 89 -89 b 315 -5 202 -69 260 -41 b 350 62 337 10 358 37 b 319 150 340 92 330 121 b 154 630 260 316 213 464 b 74 858 127 706 100 782 b 48 907 68 877 59 894 b 12 933 31 925 17 932 b -12 938 4 936 1 936 b -11 958 -12 948 -15 958 l 123 958 b 123 958 123 958 123 958 b 164 927 145 958 157 947 b 197 835 175 896 186 866 b 282 587 225 752 253 669 b 420 189 331 448 370 328 b 444 123 426 172 437 142 b 451 131 449 126 447 126 b 594 464 526 224 578 343 b 548 737 607 558 590 650 b 374 890 514 809 447 873 b 361 895 371 891 364 892 b 358 900 360 896 360 895 b 494 970 393 923 456 950 b 514 963 503 976 503 972 b 605 855 551 932 582 897 "},"Z":{"ha":738,"x_min":0,"x_max":0,"o":"m 722 973 b 735 950 725 969 735 950 b 727 944 731 946 729 946 b 487 637 654 889 582 828 b 228 177 407 489 308 325 b 126 82 223 169 141 108 b 381 142 196 124 328 142 b 562 113 420 141 459 135 b 696 224 625 100 659 155 b 705 229 697 227 701 230 b 714 218 709 228 714 222 b 640 0 714 196 641 9 b 448 52 613 6 568 40 b 23 6 333 62 129 28 b -14 0 15 5 -6 0 b 3 32 -11 9 -4 25 b 409 668 149 206 358 576 b 559 848 430 707 559 848 b 379 815 505 820 420 815 b 381 815 379 815 380 815 b 378 815 380 815 379 815 b 355 815 364 815 356 815 b 256 838 317 823 281 833 b 181 791 212 847 203 828 b 159 753 175 781 169 771 b 149 775 152 766 148 771 b 237 966 169 836 210 905 b 289 940 250 960 280 944 b 525 892 379 902 429 876 b 704 965 606 906 652 935 b 722 973 710 969 716 971 "},"[":{"ha":249,"x_min":0,"x_max":0,"o":"m 287 -129 l 281 -129 b 123 -76 190 -124 167 -116 b 63 81 90 -45 63 7 l 63 834 b 123 991 63 908 90 960 b 281 1044 157 1022 197 1033 l 287 1044 l 286 1027 b 203 989 245 1025 217 1010 b 177 841 188 968 177 916 l 177 75 b 203 -74 177 -1 188 -53 b 286 -113 217 -95 245 -110 "},"\\":{"ha":294,"x_min":0,"x_max":0,"o":"m 277 -143 l 246 -143 l 29 1031 l 60 1031 "},"]":{"ha":249,"x_min":0,"x_max":0,"o":"m -39 1044 l -33 1044 b 124 991 58 1039 81 1031 b 185 834 158 960 185 908 l 185 81 b 124 -76 185 7 158 -45 b -33 -129 91 -107 51 -118 l -39 -129 l -38 -112 b 45 -74 3 -110 31 -95 b 71 75 60 -53 71 -1 l 71 841 b 45 989 71 916 60 968 b -38 1028 31 1010 3 1025 "},"^":{"ha":501,"x_min":0,"x_max":0,"o":"m 468 646 l 444 646 l 250 879 l 55 646 l 32 646 l 206 954 l 295 954 "},"_":{"ha":667,"x_min":0,"x_max":0,"o":"m 63 -72 l 83 -31 l 604 -31 l 585 -72 "},"a":{"ha":506,"x_min":0,"x_max":0,"o":"m 427 118 b 489 65 427 102 489 65 b 436 5 463 36 460 28 b 423 0 431 0 431 -1 b 327 71 420 1 327 62 b 327 140 327 82 327 109 b 324 138 326 140 325 139 b 319 133 322 137 320 135 b 241 66 287 103 276 92 b 166 0 213 41 199 30 b 25 155 103 33 36 77 b 124 368 11 252 54 314 b 280 447 178 409 216 426 b 322 512 321 461 322 478 b 322 556 322 521 322 547 b 243 614 322 613 293 623 b 137 593 209 609 171 600 b 100 589 125 590 113 588 b 77 598 92 589 84 593 b 82 633 65 608 67 628 b 118 637 93 636 106 637 b 173 629 135 635 156 631 b 298 694 222 624 272 654 b 347 708 316 717 311 721 b 424 600 398 689 424 651 b 424 470 424 557 426 512 b 425 402 424 449 425 423 b 425 273 425 357 425 316 l 425 273 b 427 118 426 254 427 127 m 299 156 b 323 210 316 173 324 187 b 323 417 322 280 323 347 b 323 441 323 424 323 433 b 154 327 252 428 189 380 b 132 158 120 275 110 215 b 241 110 152 105 190 88 b 299 156 268 122 276 135 "},"b":{"ha":485,"x_min":0,"x_max":0,"o":"m 441 536 b 433 281 460 451 461 365 b 324 84 410 209 375 146 b 272 18 305 64 290 40 b 218 7 255 -2 242 -4 b 90 69 176 28 133 49 b 52 116 68 79 52 92 b 53 437 53 225 52 328 b 54 526 53 465 54 497 b 55 818 55 622 55 721 b 55 870 55 828 54 852 b 9 941 55 905 46 941 b 1 958 6 941 5 948 b 154 960 54 958 109 960 b 155 842 154 914 155 878 b 153 725 155 802 153 765 b 153 602 153 685 153 650 b 188 627 163 607 182 623 b 311 717 230 659 268 684 b 350 697 325 717 344 704 b 441 536 395 648 427 602 m 320 125 b 360 433 372 223 372 328 b 339 525 356 464 350 496 b 296 609 328 555 314 583 b 221 623 277 639 249 644 b 180 590 205 611 195 602 b 153 537 159 572 153 570 b 154 383 153 490 154 431 b 154 253 153 340 154 263 b 154 157 154 221 154 189 b 172 128 154 144 160 134 b 272 87 204 114 240 100 b 305 98 285 82 297 87 b 320 125 311 106 315 116 "},"c":{"ha":426,"x_min":0,"x_max":0,"o":"m 408 118 b 416 107 412 116 416 107 b 293 13 382 82 335 45 b 239 6 275 0 260 -4 b 34 260 125 52 58 138 b 89 546 15 359 31 461 b 280 715 136 616 209 673 b 405 586 308 703 373 618 b 387 570 397 579 393 574 b 315 553 340 535 342 533 b 227 651 290 570 252 637 b 142 546 194 632 154 577 b 140 253 104 446 100 357 b 265 108 167 186 196 134 b 376 110 297 95 343 94 b 408 118 389 117 400 127 "},"d":{"ha":510,"x_min":0,"x_max":0,"o":"m 430 118 b 492 65 430 102 492 65 b 438 5 466 36 463 28 b 425 0 434 0 434 -1 b 330 71 422 1 330 62 b 330 113 330 79 330 94 l 330 113 b 330 113 330 113 330 113 b 296 88 319 107 302 93 b 173 -1 254 57 216 32 b 134 19 159 -1 140 12 b 43 179 89 67 57 114 b 51 435 24 264 23 350 b 160 631 74 507 109 569 b 212 697 179 652 194 676 b 266 708 229 718 242 720 b 330 677 287 698 308 687 b 330 816 330 750 330 804 b 330 868 330 827 329 851 b 284 940 330 904 321 940 b 276 956 281 940 280 947 b 429 958 329 956 384 958 b 430 841 429 913 430 877 b 428 723 430 800 428 764 b 428 273 428 713 428 443 b 430 118 429 254 430 127 m 304 126 b 330 160 320 139 327 143 b 330 261 330 186 330 221 b 330 263 330 261 330 262 l 330 263 b 330 542 330 344 330 447 b 330 542 330 542 330 542 b 330 546 330 544 330 545 b 330 559 330 550 330 554 b 312 587 330 572 323 582 b 212 628 280 602 244 615 b 179 618 199 634 187 629 b 164 590 173 609 169 599 b 124 282 112 492 112 388 b 145 190 127 251 134 220 b 188 106 156 161 170 132 b 263 93 207 77 235 71 b 304 126 279 104 289 113 "},"e":{"ha":443,"x_min":0,"x_max":0,"o":"m 408 118 b 416 107 412 116 416 107 b 293 13 382 82 335 45 b 239 6 275 0 260 -3 b 34 260 125 53 58 138 b 27 359 28 293 25 326 b 27 363 27 360 27 362 b 27 363 27 363 27 363 b 89 546 31 428 51 490 b 280 715 136 616 209 673 b 320 676 291 710 302 693 b 408 540 347 631 382 584 b 427 497 415 528 419 515 b 355 452 400 480 377 466 b 125 299 299 417 191 342 b 140 253 129 284 134 268 b 265 108 167 186 196 134 b 376 110 297 95 343 94 b 408 118 389 117 400 127 m 142 546 b 117 334 115 473 105 406 b 339 483 179 368 316 461 b 326 508 337 492 331 499 b 253 625 304 546 276 587 b 229 654 244 639 239 649 b 142 546 197 634 154 577 "},"f":{"ha":346,"x_min":0,"x_max":0,"o":"m 87 810 b 312 701 87 810 194 700 b 343 700 322 701 329 700 b 341 662 343 700 341 677 b 211 663 341 662 221 664 b 210 566 211 635 210 583 b 210 400 212 512 209 454 b 213 248 211 350 213 298 b 213 117 213 211 213 125 b 277 65 213 102 277 65 b 220 4 251 35 245 27 b 207 0 215 0 216 -1 b 112 71 204 0 112 62 b 112 242 112 94 112 193 l 111 242 b 111 268 111 250 111 259 b 112 572 112 368 113 471 b 112 663 111 589 112 637 b 4 663 90 663 28 662 l 4 700 b 81 700 13 700 72 700 b 104 700 89 700 94 700 b 42 804 104 700 51 794 b 217 972 77 845 200 957 l 368 869 l 296 789 l 171 881 b 87 810 150 861 87 810 "},"g":{"ha":494,"x_min":0,"x_max":0,"o":"m 448 55 b 428 -120 473 -6 469 -66 b 331 -180 403 -153 368 -169 b 77 -158 244 -203 160 -189 b 37 -113 49 -148 37 -143 b 37 0 37 -83 37 -39 b 61 -11 54 0 55 -2 b 96 -79 70 -26 88 -63 b 241 -162 127 -134 174 -166 b 322 -146 269 -160 296 -159 b 374 5 384 -114 404 -59 b 329 113 357 41 328 66 b 294 88 319 109 300 93 b 174 -1 252 57 217 32 b 135 19 161 -1 142 12 b 44 179 90 67 58 114 b 52 435 25 264 24 350 b 161 631 76 507 111 569 b 226 706 180 652 208 685 b 267 708 236 717 244 720 b 392 646 310 688 349 666 b 430 600 414 636 430 624 b 429 279 429 491 430 388 b 427 178 429 251 427 206 b 427 167 427 174 427 171 b 448 55 427 128 433 92 m 302 126 b 329 179 323 143 329 145 b 328 332 329 226 328 285 b 328 462 329 376 328 453 b 328 558 328 494 328 527 b 310 591 328 572 322 585 b 220 635 278 605 252 622 b 181 618 207 640 188 629 b 165 590 175 609 170 599 b 125 282 113 492 113 388 b 146 190 129 251 136 219 b 189 106 157 161 172 132 b 261 93 208 77 233 71 b 302 126 277 104 287 113 "},"h":{"ha":494,"x_min":0,"x_max":0,"o":"m 458 463 b 352 27 472 308 428 159 b 213 -151 315 -38 269 -99 b 170 -169 203 -160 195 -173 b 204 -117 183 -149 193 -132 b 320 124 262 -46 294 38 b 361 368 344 204 356 286 b 313 573 365 441 348 508 b 293 609 308 583 299 601 b 243 619 274 631 269 635 b 219 605 241 618 222 607 b 156 535 159 565 156 561 b 156 535 156 535 156 535 b 156 15 156 328 156 24 l 57 15 b 57 816 57 60 57 771 b 58 868 57 827 57 851 b 12 940 58 904 48 940 b 4 956 9 940 7 947 b 156 958 57 956 112 958 b 158 841 156 913 158 877 b 156 723 158 800 156 764 b 156 598 156 719 156 669 b 337 715 202 625 276 680 b 372 684 350 706 363 696 b 458 463 421 616 450 548 "},"i":{"ha":256,"x_min":0,"x_max":0,"o":"m 175 117 b 239 65 175 102 239 65 b 182 4 213 35 207 27 b 169 0 177 0 177 -1 b 74 71 166 0 74 62 b 73 262 74 98 73 229 b 74 418 74 314 74 366 b 75 472 74 434 74 456 b 76 588 76 497 76 563 b 23 650 76 604 69 609 b 79 710 49 679 54 687 b 92 715 84 715 84 716 b 174 644 95 714 174 653 b 175 262 175 528 175 392 b 175 117 176 243 175 127 m 88 799 b 8 903 55 826 21 861 b 14 930 4 917 0 927 b 77 931 21 931 70 931 b 109 872 101 931 97 931 b 138 797 116 839 120 822 b 135 786 141 793 140 786 b 88 799 112 786 104 786 "},"j":{"ha":253,"x_min":0,"x_max":0,"o":"m 197 47 b 227 -28 233 2 245 -2 b 152 -138 200 -70 188 -86 b 121 -158 130 -170 130 -164 b -15 -70 106 -148 13 -96 b 37 -7 5 -46 19 -26 b 152 -85 51 -14 116 -60 b 191 -21 152 -85 173 -49 b 175 -3 195 -14 187 -9 b 114 40 152 9 130 24 b 72 147 81 72 71 102 b 72 159 72 151 72 155 b 72 169 72 162 72 164 b 72 410 72 247 72 333 b 73 464 72 425 73 448 b 75 580 74 488 75 555 b 21 641 75 595 67 601 b 78 702 47 670 53 679 b 91 706 83 706 82 707 b 172 635 94 706 172 644 b 174 157 173 490 174 314 l 174 157 b 197 47 174 112 176 73 m 87 791 b 7 894 53 818 20 853 b 13 921 2 908 -1 919 b 76 922 20 922 69 922 b 108 864 99 922 95 923 b 136 789 115 830 118 813 b 134 778 139 785 139 778 b 87 791 111 778 103 778 "},"k":{"ha":504,"x_min":0,"x_max":0,"o":"m 360 199 b 497 95 389 159 426 96 b 405 0 469 56 433 33 b 349 55 377 10 363 33 b 200 279 303 124 246 210 b 156 352 190 295 167 338 b 155 342 155 351 155 347 b 155 316 155 333 155 324 b 155 300 155 309 155 303 b 155 281 155 294 155 288 b 154 15 154 141 154 21 l 56 15 b 56 816 56 60 56 771 b 56 868 56 827 56 851 b 10 940 56 903 47 940 b 3 956 7 940 6 947 b 155 958 56 956 111 958 b 156 841 155 913 156 877 b 155 723 156 800 155 764 b 155 423 155 717 155 577 b 155 415 155 421 155 418 b 155 392 155 407 155 400 b 401 715 191 512 265 652 b 465 628 417 705 437 668 b 425 623 445 625 438 626 b 199 446 318 606 249 532 b 206 427 195 438 194 444 b 305 280 237 380 273 326 b 360 199 323 253 341 224 "},"l":{"ha":238,"x_min":0,"x_max":0,"o":"m 156 117 b 220 65 156 102 220 65 b 163 4 194 35 188 27 b 151 0 159 0 159 -1 b 55 71 147 0 55 62 b 55 227 55 98 55 193 l 55 227 b 55 816 55 454 55 785 b 55 868 55 826 54 850 b 9 939 55 903 46 939 b 1 956 6 939 5 946 b 154 958 54 956 109 958 b 155 840 154 912 155 876 b 153 723 155 800 153 763 b 156 186 153 713 156 392 b 156 117 156 166 156 127 "},"m":{"ha":789,"x_min":0,"x_max":0,"o":"m 709 118 b 771 65 709 102 771 65 b 715 5 745 36 740 28 b 702 0 710 0 710 -1 b 607 72 699 1 607 62 b 606 141 607 92 606 116 b 606 141 606 141 606 141 b 606 156 606 146 606 151 b 606 164 606 158 606 161 l 606 164 b 607 419 606 249 606 334 b 607 473 607 435 607 457 b 608 499 608 481 608 487 l 608 499 b 608 581 608 525 608 555 b 589 626 609 605 603 617 b 539 630 578 633 554 639 b 441 563 511 612 469 585 b 441 563 441 563 441 563 b 441 513 441 545 441 525 b 441 15 441 391 441 133 b 338 15 441 15 350 15 b 339 419 338 107 339 326 b 340 473 339 435 339 457 b 341 499 340 481 340 487 l 341 499 b 341 581 340 525 340 555 b 321 626 341 605 335 617 b 271 630 310 633 286 639 b 175 565 244 612 203 586 b 177 15 176 399 176 154 l 74 15 b 75 419 74 110 75 324 b 76 473 75 435 75 457 b 77 589 77 497 77 564 b 24 651 77 604 70 610 b 80 711 50 680 55 688 b 93 715 85 715 85 716 b 175 644 96 715 175 653 b 175 592 175 628 175 611 b 206 613 188 601 201 609 b 353 716 246 641 341 707 b 417 673 377 704 396 691 b 441 598 435 657 442 624 b 441 591 441 597 441 595 b 473 613 455 600 468 609 b 621 716 514 641 609 707 b 685 673 645 704 664 691 b 709 598 703 657 710 624 b 708 513 708 593 708 537 b 708 157 709 395 708 271 b 709 118 709 140 709 126 "},"n":{"ha":528,"x_min":0,"x_max":0,"o":"m 448 117 b 510 65 448 102 510 65 b 453 4 484 35 478 27 b 440 0 448 0 448 -1 b 345 71 437 0 345 62 b 344 140 345 92 345 115 b 344 140 344 140 344 140 b 344 155 344 145 344 150 b 344 163 344 158 344 161 l 344 163 b 345 418 344 248 345 333 b 346 472 345 434 345 456 b 347 499 346 480 346 487 l 347 499 b 347 581 347 524 346 555 b 327 625 347 605 341 616 b 278 629 316 632 292 639 b 179 562 249 611 207 584 b 175 559 178 561 177 560 b 177 14 176 393 176 152 l 74 14 b 75 418 74 109 75 323 b 76 472 75 434 75 456 b 77 588 77 497 77 564 b 24 650 77 604 70 609 b 80 710 50 679 55 687 b 93 715 85 715 85 716 b 175 644 96 714 175 653 b 175 588 175 627 175 608 b 212 612 190 597 206 608 b 360 715 252 640 347 707 b 423 672 383 704 402 691 b 448 598 441 656 448 623 b 447 513 447 592 447 537 b 447 156 447 395 447 270 b 448 117 447 140 448 125 "},"o":{"ha":475,"x_min":0,"x_max":0,"o":"m 419 505 b 401 170 459 391 458 277 b 272 22 369 111 327 62 b 182 19 236 -4 217 -8 b 162 36 176 23 167 31 b 43 458 32 163 3 320 b 144 629 61 521 98 579 b 256 716 173 661 207 694 b 308 675 273 702 293 690 b 419 505 359 626 395 574 m 312 105 b 375 323 364 177 382 241 b 260 580 366 421 327 506 b 216 614 247 594 232 603 b 169 612 194 629 187 631 b 151 590 162 604 156 599 b 103 387 112 532 101 467 b 129 266 106 351 112 308 b 251 92 156 198 195 140 b 312 105 279 69 289 77 "},"p":{"ha":504,"x_min":0,"x_max":0,"o":"m 461 536 b 453 281 480 451 481 365 b 344 85 430 210 395 147 b 292 19 325 65 310 41 b 239 8 275 -1 262 -3 b 172 43 217 19 193 33 b 172 -45 172 15 172 -18 b 172 -102 172 -68 172 -100 b 236 -154 172 -117 236 -154 l 73 -209 b 73 -113 73 -204 73 -145 l 73 -113 b 74 32 74 -113 74 11 b 76 505 74 39 76 385 b 78 590 76 541 78 578 b 22 651 78 605 68 611 b 79 712 48 681 54 689 b 92 716 84 716 84 717 b 173 645 95 716 173 654 b 174 616 173 636 174 626 b 175 617 174 616 174 617 l 175 603 l 175 603 b 208 627 185 608 202 623 b 331 716 250 659 288 683 b 370 696 345 716 364 703 b 461 536 415 648 447 602 m 340 126 b 380 434 392 224 392 328 b 359 525 376 465 370 496 b 316 609 348 555 334 583 b 241 623 297 639 270 644 b 200 590 225 611 215 602 b 175 556 184 576 177 572 b 175 528 175 547 175 538 b 174 529 175 528 174 529 b 174 505 174 521 174 513 b 175 174 174 473 175 205 l 175 168 b 175 157 175 164 175 161 b 193 129 175 144 181 134 b 293 88 224 115 260 101 b 325 99 305 83 317 88 b 340 126 331 107 335 117 "},"q":{"ha":485,"x_min":0,"x_max":0,"o":"m 428 -102 b 492 -154 428 -117 492 -154 l 329 -210 b 330 -106 329 -204 329 -135 l 329 -106 b 330 -95 329 -102 330 -99 b 330 -95 330 -95 330 -95 b 331 3 330 -66 331 -23 b 331 115 331 43 331 68 b 296 90 321 111 302 95 b 173 1 254 59 216 34 b 134 21 159 1 140 14 b 43 181 89 69 57 116 b 51 437 24 267 23 353 b 160 634 74 509 109 571 b 212 700 179 654 194 678 b 266 711 229 720 242 722 b 394 648 308 690 351 668 b 432 602 416 638 432 626 b 431 281 431 493 432 390 b 430 192 431 253 430 220 b 428 -83 429 98 428 11 b 428 -102 428 -93 428 -101 m 304 128 b 331 181 325 145 331 147 b 330 334 331 228 330 287 b 330 465 331 378 330 455 b 330 560 330 496 330 529 b 312 589 330 574 324 584 b 212 631 280 604 244 618 b 179 620 199 636 187 631 b 164 592 173 611 169 602 b 124 284 112 495 112 390 b 145 192 127 253 134 222 b 188 108 156 163 170 134 b 263 95 207 79 235 74 b 304 128 279 106 289 116 "},"r":{"ha":404,"x_min":0,"x_max":0,"o":"m 405 631 b 348 551 405 631 348 551 b 255 625 353 547 255 625 l 176 507 b 176 163 176 395 176 274 b 177 117 177 144 177 127 b 240 65 177 102 240 65 b 183 4 214 35 208 27 b 170 0 178 0 178 -1 b 75 71 167 0 75 62 b 74 163 75 98 74 130 b 75 418 74 248 75 333 b 76 472 75 434 75 456 b 77 588 77 497 77 563 b 24 650 77 604 70 609 b 80 710 50 679 55 687 b 93 715 85 715 85 716 b 175 644 96 714 175 653 b 175 550 175 614 175 582 b 290 716 182 560 278 708 b 405 631 312 702 403 634 "},"s":{"ha":439,"x_min":0,"x_max":0,"o":"m 415 260 b 400 174 420 237 414 203 b 261 20 373 120 307 66 b 193 17 237 1 241 -12 b 17 149 127 55 70 112 b 66 200 32 185 51 195 b 90 204 75 201 88 204 b 252 82 134 172 242 86 b 329 116 271 73 301 82 b 325 251 369 180 353 223 b 148 386 264 300 187 365 b 87 607 42 453 28 521 b 230 715 127 654 181 687 b 389 594 262 698 364 613 b 347 555 377 567 365 563 b 288 563 332 549 301 553 b 191 639 260 579 205 630 b 125 618 173 650 147 642 b 156 504 87 570 105 539 b 313 387 182 487 263 422 b 415 260 365 351 408 318 "},"t":{"ha":292,"x_min":0,"x_max":0,"o":"m 185 671 b 185 298 185 537 185 369 b 184 244 185 282 184 260 b 187 121 183 220 187 121 l 251 72 l 197 0 l 88 80 b 86 671 87 224 86 488 l 15 671 l 15 701 l 86 701 b 86 803 86 727 86 782 b 88 827 86 808 86 827 b 182 925 88 827 182 925 b 185 925 183 925 184 925 b 185 874 185 910 185 886 b 185 701 185 836 185 774 l 279 701 l 279 671 "},"u":{"ha":513,"x_min":0,"x_max":0,"o":"m 434 127 b 488 65 434 112 442 106 b 431 5 462 36 456 28 b 418 1 426 0 426 0 b 336 72 415 1 336 62 b 336 123 336 87 336 104 b 310 103 325 114 314 106 b 162 0 269 75 174 9 b 98 43 138 12 119 24 b 74 118 80 59 73 92 b 74 203 74 123 74 179 b 76 537 74 317 75 427 l 75 537 b 76 560 76 545 76 553 l 76 560 b 76 589 76 572 76 582 b 22 651 76 605 68 610 b 79 711 48 680 54 688 b 92 716 84 716 84 717 b 173 644 95 715 173 654 b 174 567 174 619 174 594 b 174 567 174 567 174 567 b 174 537 174 557 174 547 l 174 537 b 175 298 174 457 175 381 b 175 243 175 283 176 259 b 175 217 175 235 175 229 l 175 217 b 175 135 175 191 175 160 b 194 90 174 111 180 99 b 244 86 205 83 229 77 b 336 151 270 103 308 130 b 335 701 335 317 335 562 l 437 701 b 436 297 437 606 436 392 b 435 243 436 281 436 259 b 434 127 434 219 434 152 "},"v":{"ha":492,"x_min":0,"x_max":0,"o":"m 409 622 b 455 335 456 531 475 435 b 320 73 435 236 384 150 b 259 0 299 49 279 25 b 236 5 249 2 242 2 b 106 85 190 28 152 63 b 73 122 82 97 73 106 b 73 159 73 127 73 154 b 73 419 73 248 73 329 b 74 473 73 435 74 457 b 76 589 75 497 76 564 b 22 650 76 604 68 610 b 79 711 48 680 54 688 b 92 715 84 715 84 716 b 173 644 95 715 173 653 b 175 158 174 494 175 318 b 175 158 175 158 175 158 b 201 132 180 141 189 139 b 275 81 222 119 254 91 b 321 110 290 74 303 81 b 348 157 330 125 343 141 b 386 311 364 208 385 257 b 363 489 387 371 380 431 b 271 652 346 546 320 615 b 255 667 269 654 257 662 b 324 710 275 687 301 698 b 346 713 331 713 340 719 b 409 622 363 694 396 645 "},"w":{"ha":742,"x_min":0,"x_max":0,"o":"m 658 622 b 705 335 706 531 725 435 b 579 73 685 236 643 150 b 518 0 559 49 539 25 b 495 5 509 2 501 2 b 362 85 450 28 408 63 b 339 99 352 90 344 95 b 304 103 314 113 313 109 b 201 27 263 75 236 54 b 160 0 189 19 173 9 b 90 47 135 16 112 30 b 72 123 69 64 71 98 b 73 203 73 129 73 180 b 73 272 73 226 73 249 l 73 272 b 73 419 73 320 73 368 b 74 473 73 435 74 457 b 76 589 75 497 76 564 b 22 650 76 604 68 610 b 79 711 48 680 54 688 b 92 715 84 715 84 716 b 173 644 95 715 173 653 b 175 340 174 550 174 445 l 175 340 b 175 304 175 328 175 316 b 175 269 175 292 175 280 l 175 269 b 174 243 174 260 174 251 b 173 210 174 235 173 223 b 173 137 173 186 173 160 b 202 86 173 113 179 97 b 249 93 218 79 235 83 b 327 149 278 114 299 128 b 329 151 328 150 328 150 b 329 159 329 155 329 157 b 329 159 329 159 329 159 b 328 652 328 319 328 503 b 328 668 328 658 327 663 b 330 701 329 688 327 701 b 429 701 353 700 403 701 b 430 650 431 686 430 662 b 430 297 431 532 430 415 b 429 243 430 281 429 259 b 428 164 428 227 428 193 b 457 127 428 142 445 134 b 534 81 479 115 513 91 b 577 110 549 74 559 81 b 605 166 586 125 600 149 b 635 311 621 216 634 257 b 612 489 637 371 629 431 b 521 652 596 546 569 615 b 504 667 518 654 507 662 b 570 710 524 687 547 698 b 592 713 577 713 586 719 b 658 622 609 694 646 645 "},"x":{"ha":543,"x_min":0,"x_max":0,"o":"m 527 102 b 540 99 528 102 536 105 b 459 4 521 72 482 31 b 439 3 455 -2 448 0 b 373 60 411 12 386 32 b 328 156 358 93 344 125 b 258 306 300 209 287 254 b 245 327 255 312 252 319 b 224 295 236 317 229 304 b 59 32 171 208 112 119 b 7 0 49 15 46 0 b 18 22 10 13 15 18 b 206 315 78 118 143 222 b 224 389 231 354 234 371 b 141 544 199 435 164 501 b 28 611 118 586 80 603 b 45 636 35 623 41 629 b 92 702 60 656 75 683 b 113 710 103 715 99 720 b 191 650 135 696 178 673 b 262 518 216 602 236 565 b 297 453 272 499 286 470 b 326 493 310 469 319 482 b 457 690 368 558 415 625 b 476 716 462 698 469 708 b 482 685 492 704 487 693 b 339 463 438 613 384 535 b 313 426 335 456 319 433 b 324 386 307 415 313 405 b 424 176 345 349 405 213 b 511 104 443 139 466 106 b 527 102 514 103 520 103 "},"y":{"ha":492,"x_min":0,"x_max":0,"o":"m 408 622 b 455 335 456 531 475 435 b 322 69 435 236 386 146 b 256 -4 302 45 282 21 b 256 -4 256 -4 256 -4 b 220 -41 245 -16 233 -29 b 50 -155 171 -89 112 -124 b 35 -159 46 -157 40 -158 b -7 -132 12 -164 -3 -154 b -8 -105 -9 -123 -9 -114 b 17 -76 -7 -90 0 -78 b 69 -69 34 -73 51 -71 b 229 -7 129 -65 182 -43 b 241 4 233 -4 237 0 b 239 5 240 4 239 5 b 106 85 193 28 152 63 b 72 122 81 97 72 106 b 72 159 72 127 72 154 b 73 419 72 248 73 329 b 74 473 73 435 73 457 b 75 589 75 497 75 564 b 22 650 75 604 68 610 b 78 711 48 680 53 688 b 91 715 83 715 83 716 b 173 644 94 715 173 653 b 175 158 174 494 174 318 b 175 158 175 158 175 158 b 200 132 179 141 188 139 b 277 81 221 119 257 91 b 324 110 293 74 306 81 b 351 157 333 125 346 141 b 385 311 366 208 384 257 b 362 489 387 371 379 431 b 271 652 346 546 320 615 b 255 667 268 654 257 662 b 320 710 274 687 297 698 b 342 713 327 713 336 719 b 408 622 359 694 396 645 "},"z":{"ha":529,"x_min":0,"x_max":0,"o":"m 509 191 b 516 183 512 190 516 186 b 438 0 516 167 439 7 b 289 47 418 5 378 38 b 15 0 203 54 98 24 b 14 0 15 0 15 0 b 5 12 8 -2 2 5 b 10 20 7 15 8 17 b 293 497 173 297 267 449 b 382 628 309 526 382 628 b 230 590 329 600 276 587 b 162 606 189 593 180 601 b 102 575 130 616 119 603 b 85 547 97 567 93 560 b 78 563 81 556 77 560 b 156 718 93 609 136 673 b 183 698 165 714 177 702 b 325 665 219 675 253 663 b 467 707 383 666 428 685 b 494 715 471 710 483 715 b 503 701 505 715 504 703 b 499 693 502 697 501 695 b 157 87 426 646 162 97 b 299 119 181 96 237 118 b 397 109 366 120 358 114 b 502 187 445 103 475 136 b 509 191 504 189 507 191 "},"{":{"ha":333,"x_min":0,"x_max":0,"o":"m 288 -74 b 371 -113 303 -95 331 -110 l 372 -129 l 366 -129 b 212 -76 276 -124 256 -116 b 151 81 178 -45 151 7 l 151 206 b 32 451 151 300 126 451 l 32 465 b 151 709 128 465 151 616 l 151 834 b 212 991 151 908 178 960 b 366 1044 246 1022 282 1033 l 372 1044 l 371 1027 b 288 989 331 1025 303 1010 b 262 841 273 968 262 917 l 262 75 b 288 -74 262 -1 273 -53 "},"|":{"ha":154,"x_min":0,"x_max":0,"o":"m 63 -143 l 63 1031 l 91 1031 l 91 -143 "},"}":{"ha":333,"x_min":0,"x_max":0,"o":"m 182 709 b 301 465 182 616 207 465 l 301 451 b 182 206 206 451 182 299 l 182 81 b 121 -76 182 7 155 -45 b -33 -129 87 -107 51 -118 l -39 -129 l -38 -112 b 45 -74 3 -110 31 -95 b 71 75 60 -53 71 -1 l 71 841 b 45 989 71 917 60 968 b -38 1028 31 1010 3 1025 l -39 1044 l -33 1044 b 121 991 58 1039 77 1031 b 182 834 155 960 182 908 l 182 709 "},"":{"ha":388,"x_min":0,"x_max":0,"o":""},"":{"ha":240,"x_min":0,"x_max":0,"o":"m 120 566 b 72 588 98 566 87 573 b 50 641 57 602 50 620 b 72 694 50 662 57 680 b 120 716 87 708 98 716 b 168 694 142 716 154 708 b 189 641 182 680 189 663 b 167 588 189 620 182 602 b 120 566 153 573 141 566 m 134 497 b 162 132 138 401 142 261 b 178 -139 182 4 178 -103 b 120 -257 178 -206 174 -257 b 61 -142 72 -257 61 -220 b 78 127 61 -108 58 -3 b 106 497 98 256 100 397 l 134 497 "},"":{"ha":688,"x_min":0,"x_max":0,"o":"m 268 879 b 186 807 220 841 200 828 b 287 458 190 783 286 461 l 165 462 b 78 751 158 491 79 745 b 222 873 114 786 165 816 b 330 966 264 911 303 945 b 362 963 345 978 345 974 b 543 819 414 929 501 854 b 466 737 543 819 486 758 b 425 771 448 748 439 761 b 303 877 389 801 335 850 b 268 879 284 892 287 895 m 664 183 b 647 137 670 176 651 145 b 587 29 628 102 605 65 b 545 0 577 10 566 0 b 276 44 409 0 343 25 b 101 26 205 65 132 42 b 62 2 88 19 76 9 b 49 7 59 1 52 4 b 49 21 47 11 47 18 b 69 55 54 30 62 47 b 194 227 115 107 172 161 b 201 335 206 264 207 299 l 50 335 l 70 376 l 191 376 b 187 390 190 381 189 385 b 165 462 180 413 172 437 l 287 458 b 302 398 293 438 297 420 b 305 376 303 391 305 383 l 567 376 l 549 335 l 304 335 b 272 251 300 306 288 278 b 214 163 254 220 235 192 b 127 82 210 158 161 124 b 230 122 154 93 207 113 b 368 142 270 139 325 149 b 465 111 402 136 432 120 b 611 149 506 100 568 104 b 645 176 618 156 638 169 b 664 183 648 179 658 191 "},"":{"ha":844,"x_min":0,"x_max":0,"o":"m 719 846 b 794 551 769 755 807 656 b 659 203 779 428 725 304 b 516 27 617 138 569 79 l 607 -21 l 604 -51 l 495 6 b 471 -16 487 -1 479 -9 l 569 -68 l 565 -98 l 448 -36 b 271 -153 394 -80 335 -119 b 200 -184 248 -165 224 -175 b 115 -161 166 -199 137 -192 b 63 -95 101 -142 85 -124 b 117 -92 87 -94 102 -92 b 260 -82 165 -92 212 -91 b 418 -20 317 -72 369 -50 l 287 50 l 291 79 l 444 -2 b 466 22 453 4 461 13 l 325 96 l 329 126 l 475 49 b 473 60 475 52 475 56 b 443 148 464 90 453 119 b 278 628 384 314 337 462 b 198 856 251 704 224 780 b 172 905 191 875 183 892 b 136 931 155 923 141 930 b 112 936 128 934 124 934 b 112 956 112 946 108 956 l 247 956 b 247 956 247 956 247 956 b 288 925 269 956 281 945 b 321 833 298 894 310 864 b 406 585 349 750 377 667 b 543 187 455 446 493 326 b 567 121 550 170 560 140 b 575 129 572 124 571 124 b 722 462 650 222 705 341 b 669 736 734 556 710 650 b 497 887 634 808 576 864 b 485 890 494 888 488 887 b 478 898 484 891 480 893 b 590 968 513 921 553 948 b 621 961 600 974 610 970 b 719 846 658 930 696 888 "},"":{"ha":0,"x_min":0,"x_max":0,"o":""},"":{"ha":560,"x_min":0,"x_max":0,"o":"m 459 127 b 513 65 459 111 467 106 b 456 5 487 36 481 28 b 443 0 451 0 451 -1 b 361 71 440 1 361 62 b 361 122 361 87 361 104 b 335 103 350 114 339 106 b 199 8 301 80 229 29 b 198 -82 198 -22 198 -63 b 252 -143 198 -97 206 -102 b 195 -203 226 -172 220 -180 b 182 -208 190 -208 190 -209 b 100 -137 179 -207 100 -146 b 100 99 100 -76 100 8 b 99 117 99 105 99 111 b 99 202 99 123 99 178 b 101 536 99 316 100 426 l 100 536 b 101 560 101 544 101 552 b 101 560 101 560 101 560 b 101 589 101 572 101 582 b 47 651 101 604 93 610 b 104 711 73 680 79 688 b 117 715 109 715 109 716 b 198 644 120 715 198 653 b 199 567 199 619 199 593 b 199 567 199 567 199 567 b 199 536 199 557 199 547 l 199 536 b 200 298 199 456 200 381 b 200 243 200 282 201 259 b 200 217 200 235 200 228 l 200 217 b 200 149 200 195 200 171 l 200 149 b 200 124 200 141 200 132 b 219 90 201 107 207 98 b 269 86 230 83 254 77 b 361 151 295 103 333 130 b 360 701 360 316 360 562 l 462 701 b 461 297 462 606 461 392 b 460 243 461 281 461 259 b 459 127 459 218 459 152 "},"":{"ha":449,"x_min":0,"x_max":0,"o":"m 479 -120 b 488 -186 497 -131 501 -163 b 474 -203 484 -192 479 -198 b 335 -257 443 -240 381 -256 b 303 -256 324 -257 313 -257 b 63 -56 255 -256 67 -228 b 74 5 62 -35 67 -14 b 271 147 112 104 218 141 b 314 497 287 255 309 417 l 342 497 b 393 92 346 403 374 216 b 381 92 393 92 387 92 b 180 -60 304 97 185 73 b 334 -236 176 -171 253 -236 b 342 -235 335 -236 338 -235 b 390 -172 360 -228 372 -198 b 415 -138 398 -160 405 -150 b 479 -120 432 -117 461 -108 m 327 566 b 280 588 306 566 295 573 b 258 641 265 602 258 620 b 280 694 258 662 265 680 b 327 716 294 708 306 716 b 376 694 350 716 362 708 b 397 641 390 680 397 663 b 375 588 397 620 390 602 b 327 566 361 573 349 566 "},"":{"ha":606,"x_min":0,"x_max":0,"o":"m 590 958 b 586 938 590 950 591 939 b 498 819 529 925 497 868 b 498 412 499 679 498 553 b 498 167 499 331 498 248 b 498 167 498 167 498 167 b 498 148 498 165 498 150 b 510 132 498 138 497 141 b 564 101 523 123 550 110 b 583 87 569 98 586 91 b 539 10 566 60 560 40 b 515 3 530 -2 521 -1 b 455 34 507 7 465 29 b 389 80 399 66 389 68 b 389 125 389 82 389 103 b 388 238 388 161 387 201 b 389 443 389 306 389 374 b 389 449 389 445 389 447 b 283 449 356 449 316 449 b 170 447 253 449 197 447 b 156 447 169 447 162 447 b 156 412 156 434 156 416 b 156 65 157 296 156 181 b 156 15 156 52 157 29 l 47 15 b 47 53 47 15 47 47 b 46 238 48 114 45 176 b 47 455 47 301 47 391 b 47 455 47 455 47 455 b 73 684 48 525 57 614 b 180 898 90 766 121 837 b 325 958 194 912 240 958 b 386 958 363 959 357 959 l 590 958 m 389 817 b 389 862 389 830 390 848 b 389 861 389 862 389 861 b 389 877 389 877 389 867 b 330 933 389 928 347 933 b 281 929 323 933 288 931 b 238 909 268 924 250 916 b 157 620 186 874 157 772 b 157 513 157 576 157 574 b 184 514 170 513 178 514 b 358 516 232 514 310 515 b 389 517 364 516 378 516 b 389 817 389 617 389 717 m 414 991 l 213 1060 l 264 1147 l 422 997 "},"":{"ha":606,"x_min":0,"x_max":0,"o":"m 590 958 b 586 938 590 950 591 939 b 498 819 529 925 497 868 b 498 412 499 679 498 553 b 498 167 499 331 498 248 b 498 167 498 167 498 167 b 498 148 498 165 498 150 b 510 132 498 138 497 141 b 564 101 523 123 550 110 b 583 87 569 98 586 91 b 539 10 566 60 560 40 b 515 3 530 -2 521 -1 b 455 34 507 7 465 29 b 389 80 399 66 389 68 b 389 125 389 82 389 103 b 388 238 388 161 387 201 b 389 443 389 306 389 374 b 389 449 389 445 389 447 b 283 449 356 449 316 449 b 170 447 253 449 197 447 b 156 447 169 447 162 447 b 156 412 156 434 156 416 b 156 65 157 296 156 181 b 156 15 156 52 157 29 l 47 15 b 47 53 47 15 47 47 b 46 238 48 114 45 176 b 47 455 47 301 47 391 b 47 455 47 455 47 455 b 73 684 48 525 57 614 b 180 898 90 766 121 837 b 325 958 194 912 240 958 b 386 958 363 959 357 959 l 590 958 m 389 817 b 389 862 389 830 390 848 b 389 861 389 862 389 861 b 389 877 389 877 389 867 b 330 933 389 928 347 933 b 281 929 323 933 288 931 b 238 909 268 924 250 916 b 157 620 186 874 157 772 b 157 513 157 576 157 574 b 184 514 170 513 178 514 b 358 516 232 514 310 515 b 389 517 364 516 378 516 b 389 817 389 617 389 717 m 223 991 l 215 997 l 369 1147 l 421 1060 "},"":{"ha":606,"x_min":0,"x_max":0,"o":"m 590 958 b 586 938 590 950 591 939 b 498 819 529 925 497 868 b 498 412 499 679 498 553 b 498 167 499 331 498 248 b 498 167 498 167 498 167 b 498 148 498 165 498 150 b 510 132 498 138 497 141 b 564 101 523 123 550 110 b 583 87 569 98 586 91 b 539 10 566 60 560 40 b 515 3 530 -2 521 -1 b 455 34 507 7 465 29 b 389 80 399 66 389 68 b 389 125 389 82 389 103 b 388 238 388 161 387 201 b 389 443 389 306 389 374 b 389 449 389 445 389 447 b 283 449 356 449 316 449 b 170 447 253 449 197 447 b 156 447 169 447 162 447 b 156 412 156 434 156 416 b 156 65 157 296 156 181 b 156 15 156 52 157 29 l 47 15 b 47 53 47 15 47 47 b 46 238 48 114 45 176 b 47 455 47 301 47 391 b 47 455 47 455 47 455 b 73 684 48 525 57 614 b 180 898 90 766 121 837 b 325 958 194 912 240 958 b 386 958 363 959 357 959 l 590 958 m 389 817 b 389 862 389 830 390 848 b 389 861 389 862 389 861 b 389 877 389 877 389 867 b 330 933 389 928 347 933 b 281 929 323 933 288 931 b 238 909 268 924 250 916 b 157 620 186 874 157 772 b 157 513 157 576 157 574 b 184 514 170 513 178 514 b 358 516 232 514 310 515 b 389 517 364 516 378 516 b 389 817 389 617 389 717 m 193 984 l 184 994 l 314 1137 l 322 1137 l 451 994 l 443 984 l 318 1045 "},"":{"ha":606,"x_min":0,"x_max":0,"o":"m 590 958 b 586 938 590 950 591 939 b 498 819 529 925 497 868 b 498 412 499 679 498 553 b 498 167 499 331 498 248 b 498 167 498 167 498 167 b 498 148 498 165 498 150 b 510 132 498 138 497 141 b 564 101 523 123 550 110 b 583 87 569 98 586 91 b 539 10 566 60 560 40 b 515 3 530 -2 521 -1 b 455 34 507 7 465 29 b 389 80 399 66 389 68 b 389 125 389 82 389 103 b 388 238 388 161 387 201 b 389 443 389 306 389 374 b 389 449 389 445 389 447 b 283 449 356 449 316 449 b 170 447 253 449 197 447 b 156 447 169 447 162 447 b 156 412 156 434 156 416 b 156 65 157 296 156 181 b 156 15 156 52 157 29 l 47 15 b 47 53 47 15 47 47 b 46 238 48 114 45 176 b 47 455 47 301 47 391 b 47 455 47 455 47 455 b 73 684 48 525 57 614 b 180 898 90 766 121 837 b 325 958 194 912 240 958 b 386 958 363 959 357 959 l 590 958 m 389 817 b 389 862 389 830 390 848 b 389 861 389 862 389 861 b 389 877 389 877 389 867 b 330 933 389 928 347 933 b 281 929 323 933 288 931 b 238 909 268 924 250 916 b 157 620 186 874 157 772 b 157 513 157 576 157 574 b 184 514 170 513 178 514 b 358 516 232 514 310 515 b 389 517 364 516 378 516 b 389 817 389 617 389 717 m 198 983 l 187 986 l 187 989 b 265 1100 189 1028 190 1100 b 325 1082 292 1100 303 1093 b 384 1062 347 1072 358 1062 b 437 1109 410 1062 424 1072 l 438 1112 l 449 1109 l 449 1106 b 370 996 447 1068 446 996 b 310 1013 344 996 333 1003 b 252 1033 288 1023 278 1033 b 199 986 226 1033 212 1023 "},"":{"ha":606,"x_min":0,"x_max":0,"o":"m 590 958 b 586 938 590 950 591 939 b 498 819 529 925 497 868 b 498 412 499 679 498 553 b 498 167 499 331 498 248 b 498 167 498 167 498 167 b 498 148 498 165 498 150 b 510 132 498 138 497 141 b 564 101 523 123 550 110 b 583 87 569 98 586 91 b 539 10 566 60 560 40 b 515 3 530 -2 521 -1 b 455 34 507 7 465 29 b 389 80 399 66 389 68 b 389 125 389 82 389 103 b 388 238 388 161 387 201 b 389 443 389 306 389 374 b 389 449 389 445 389 447 b 283 449 356 449 316 449 b 170 447 253 449 197 447 b 156 447 169 447 162 447 b 156 412 156 434 156 416 b 156 65 157 296 156 181 b 156 15 156 52 157 29 l 47 15 b 47 53 47 15 47 47 b 46 238 48 114 45 176 b 47 455 47 301 47 391 b 47 455 47 455 47 455 b 73 684 48 525 57 614 b 180 898 90 766 121 837 b 325 958 194 912 240 958 b 386 958 363 959 357 959 l 590 958 m 389 817 b 389 862 389 830 390 848 b 389 861 389 862 389 861 b 389 877 389 877 389 867 b 330 933 389 928 347 933 b 281 929 323 933 288 931 b 238 909 268 924 250 916 b 157 620 186 874 157 772 b 157 513 157 576 157 574 b 184 514 170 513 178 514 b 358 516 232 514 310 515 b 389 517 364 516 378 516 b 389 817 389 617 389 717 m 233 1013 b 182 1065 205 1013 182 1036 b 233 1117 182 1093 205 1117 b 285 1065 261 1117 285 1093 b 233 1013 285 1036 262 1013 m 403 1013 b 351 1065 374 1013 351 1036 b 403 1117 351 1093 375 1117 b 454 1065 430 1117 454 1093 b 403 1013 454 1036 431 1013 "},"":{"ha":606,"x_min":0,"x_max":0,"o":"m 590 958 b 586 938 590 950 591 939 b 498 819 529 925 497 868 b 498 412 499 679 498 553 b 498 167 499 331 498 248 b 498 167 498 167 498 167 b 498 148 498 165 498 150 b 510 132 498 138 497 141 b 564 101 523 123 550 110 b 583 87 569 98 586 91 b 539 10 566 60 560 40 b 515 3 530 -2 521 -1 b 455 34 507 7 465 29 b 389 80 399 66 389 68 b 389 125 389 82 389 103 b 388 238 388 161 387 201 b 389 443 389 306 389 374 b 389 449 389 445 389 447 b 283 449 356 449 316 449 b 170 447 253 449 197 447 b 156 447 169 447 162 447 b 156 412 156 434 156 416 b 156 65 157 296 156 181 b 156 15 156 52 157 29 l 47 15 b 47 53 47 15 47 47 b 46 238 48 114 45 176 b 47 455 47 301 47 391 b 47 455 47 455 47 455 b 73 684 48 525 57 614 b 180 898 90 766 121 837 b 325 958 194 912 240 958 b 386 958 363 959 357 959 l 590 958 m 389 817 b 389 862 389 830 390 848 b 389 861 389 862 389 861 b 389 877 389 877 389 867 b 330 933 389 928 347 933 b 281 929 323 933 288 931 b 238 909 268 924 250 916 b 157 620 186 874 157 772 b 157 513 157 576 157 574 b 184 514 170 513 178 514 b 358 516 232 514 310 515 b 389 517 364 516 378 516 b 389 817 389 617 389 717 m 318 986 b 240 1063 271 986 240 1018 b 318 1140 240 1108 271 1140 b 396 1063 365 1140 396 1108 b 318 986 396 1018 365 986 m 318 1118 b 284 1063 293 1118 284 1097 b 318 1009 284 1029 292 1009 b 351 1063 343 1009 351 1029 b 318 1118 351 1097 343 1118 "},"":{"ha":946,"x_min":0,"x_max":0,"o":"m 931 183 b 914 137 937 176 918 145 b 854 29 895 102 872 65 b 813 0 844 10 834 0 b 544 44 676 0 610 25 b 395 26 472 65 426 42 b 356 2 382 19 370 9 b 343 7 354 1 346 4 b 343 21 341 11 341 18 b 388 80 349 30 380 71 b 387 124 388 82 388 103 b 387 237 387 161 386 201 b 388 443 388 306 388 374 b 388 449 388 445 388 447 b 282 448 355 449 315 448 b 168 446 251 448 196 447 b 155 446 168 446 161 446 b 155 412 155 433 155 416 b 154 65 155 296 154 181 b 154 14 154 51 156 29 l 45 14 b 45 52 45 14 45 47 b 45 237 47 114 44 176 b 46 431 46 301 46 367 b 46 431 46 431 46 431 b 71 653 46 501 56 584 b 179 897 89 735 120 837 b 324 958 192 912 239 958 b 384 958 361 959 356 958 l 565 958 b 561 937 565 950 566 939 b 496 829 504 924 496 878 b 497 755 497 804 497 780 b 615 873 541 800 588 846 b 712 966 656 911 685 945 b 747 963 727 978 730 974 b 931 819 800 929 889 854 b 855 737 931 819 875 758 b 814 771 837 748 828 761 b 689 877 778 801 721 850 b 653 876 670 892 672 891 b 497 664 605 837 510 693 b 498 658 498 663 498 659 b 497 658 498 658 497 658 b 497 580 497 632 497 606 b 716 582 580 581 706 582 b 824 633 734 582 795 627 b 747 472 802 583 771 503 b 666 518 719 488 694 518 b 497 518 636 518 551 518 b 497 412 497 483 497 448 b 497 167 497 331 497 248 b 497 167 497 167 497 167 b 497 148 497 165 497 149 b 498 123 497 141 495 131 b 635 142 539 139 593 149 b 733 111 669 136 700 120 b 878 149 773 100 835 104 b 913 176 885 156 905 169 b 931 183 915 179 925 191 m 357 516 b 388 517 363 516 377 516 b 387 817 387 617 388 717 b 388 862 387 829 388 847 b 388 861 388 862 388 861 b 387 877 388 877 387 867 b 328 933 387 928 346 933 b 280 928 321 933 287 931 b 237 909 267 924 248 916 b 155 613 185 874 155 765 b 155 513 155 569 155 574 b 183 514 168 513 177 513 b 357 516 231 514 309 515 "},"":{"ha":567,"x_min":0,"x_max":0,"o":"m 540 135 b 542 120 547 131 547 126 b 470 12 525 96 488 39 b 415 -1 467 7 436 0 b 290 14 368 -1 328 3 l 265 -34 b 388 -69 306 -34 358 -38 b 395 -152 412 -95 411 -129 b 293 -197 372 -186 328 -197 b 176 -120 234 -197 178 -155 l 194 -110 b 262 -164 203 -141 234 -164 b 314 -111 293 -164 314 -146 b 219 -60 314 -72 270 -58 l 265 22 b 189 62 240 32 216 45 b 25 357 73 140 42 222 b 84 651 13 451 43 570 b 240 869 125 730 160 790 b 257 885 243 872 254 882 b 257 885 257 885 257 885 b 341 965 291 918 317 946 b 376 962 356 976 359 973 b 560 818 429 928 519 853 b 484 735 560 818 504 757 b 443 769 466 747 457 760 b 318 869 407 800 350 842 b 275 868 299 884 294 883 b 173 739 233 829 202 787 b 126 360 106 628 94 484 b 392 116 162 221 245 140 b 504 121 419 112 472 109 b 540 135 518 127 528 129 "},"":{"ha":611,"x_min":0,"x_max":0,"o":"m 331 518 b 197 518 294 518 238 518 b 220 459 198 515 219 461 l 98 462 b 47 631 90 492 48 626 b 280 873 79 674 223 816 b 377 966 322 912 350 945 b 413 963 392 978 396 974 b 597 820 465 929 555 854 b 520 737 597 820 540 759 b 479 771 503 749 493 762 b 354 877 443 801 386 850 b 318 876 335 892 337 892 b 163 664 271 837 175 693 b 184 580 167 639 180 594 b 382 582 252 580 369 582 b 489 633 400 582 461 627 b 413 472 467 583 437 504 b 331 518 384 488 360 518 m 597 183 b 579 137 602 176 583 145 b 519 30 561 103 537 65 b 478 0 510 10 499 0 b 209 45 341 0 276 25 b 61 26 138 65 91 42 b 22 2 47 19 35 9 b 9 8 19 1 11 4 b 8 21 7 11 6 18 b 28 55 14 30 21 47 b 126 227 75 107 105 161 b 120 390 144 284 138 335 b 98 462 112 413 105 438 l 220 459 b 234 399 225 438 229 420 b 205 251 247 345 231 296 b 146 163 187 220 167 192 b 87 82 142 158 120 124 b 162 122 114 93 139 113 b 301 142 203 139 258 149 b 398 111 334 136 365 120 b 544 149 439 100 501 105 b 578 176 551 157 571 169 b 597 183 581 179 591 191 m 399 991 l 198 1060 l 249 1147 l 407 997 "},"":{"ha":611,"x_min":0,"x_max":0,"o":"m 331 518 b 197 518 294 518 238 518 b 220 459 198 515 219 461 l 98 462 b 47 631 90 492 48 626 b 280 873 79 674 223 816 b 377 966 322 912 350 945 b 413 963 392 978 396 974 b 597 820 465 929 555 854 b 520 737 597 820 540 759 b 479 771 503 749 493 762 b 354 877 443 801 386 850 b 318 876 335 892 337 892 b 163 664 271 837 175 693 b 184 580 167 639 180 594 b 382 582 252 580 369 582 b 489 633 400 582 461 627 b 413 472 467 583 437 504 b 331 518 384 488 360 518 m 597 183 b 579 137 602 176 583 145 b 519 30 561 103 537 65 b 478 0 510 10 499 0 b 209 45 341 0 276 25 b 61 26 138 65 91 42 b 22 2 47 19 35 9 b 9 8 19 1 11 4 b 8 21 7 11 6 18 b 28 55 14 30 21 47 b 126 227 75 107 105 161 b 120 390 144 284 138 335 b 98 462 112 413 105 438 l 220 459 b 234 399 225 438 229 420 b 205 251 247 345 231 296 b 146 163 187 220 167 192 b 87 82 142 158 120 124 b 162 122 114 93 139 113 b 301 142 203 139 258 149 b 398 111 334 136 365 120 b 544 149 439 100 501 105 b 578 176 551 157 571 169 b 597 183 581 179 591 191 m 208 991 l 199 997 l 353 1147 l 405 1060 "},"":{"ha":611,"x_min":0,"x_max":0,"o":"m 331 518 b 197 518 294 518 238 518 b 220 459 198 515 219 461 l 98 462 b 47 631 90 492 48 626 b 280 873 79 674 223 816 b 377 966 322 912 350 945 b 413 963 392 978 396 974 b 597 820 465 929 555 854 b 520 737 597 820 540 759 b 479 771 503 749 493 762 b 354 877 443 801 386 850 b 318 876 335 892 337 892 b 163 664 271 837 175 693 b 184 580 167 639 180 594 b 382 582 252 580 369 582 b 489 633 400 582 461 627 b 413 472 467 583 437 504 b 331 518 384 488 360 518 m 597 183 b 579 137 602 176 583 145 b 519 30 561 103 537 65 b 478 0 510 10 499 0 b 209 45 341 0 276 25 b 61 26 138 65 91 42 b 22 2 47 19 35 9 b 9 8 19 1 11 4 b 8 21 7 11 6 18 b 28 55 14 30 21 47 b 126 227 75 107 105 161 b 120 390 144 284 138 335 b 98 462 112 413 105 438 l 220 459 b 234 399 225 438 229 420 b 205 251 247 345 231 296 b 146 163 187 220 167 192 b 87 82 142 158 120 124 b 162 122 114 93 139 113 b 301 142 203 139 258 149 b 398 111 334 136 365 120 b 544 149 439 100 501 105 b 578 176 551 157 571 169 b 597 183 581 179 591 191 m 259 984 l 250 994 l 379 1137 l 388 1137 l 517 994 l 509 984 l 384 1045 "},"":{"ha":611,"x_min":0,"x_max":0,"o":"m 331 518 b 197 518 294 518 238 518 b 220 459 198 515 219 461 l 98 462 b 47 631 90 492 48 626 b 280 873 79 674 223 816 b 377 966 322 912 350 945 b 413 963 392 978 396 974 b 597 820 465 929 555 854 b 520 737 597 820 540 759 b 479 771 503 749 493 762 b 354 877 443 801 386 850 b 318 876 335 892 337 892 b 163 664 271 837 175 693 b 184 580 167 639 180 594 b 382 582 252 580 369 582 b 489 633 400 582 461 627 b 413 472 467 583 437 504 b 331 518 384 488 360 518 m 597 183 b 579 137 602 176 583 145 b 519 30 561 103 537 65 b 478 0 510 10 499 0 b 209 45 341 0 276 25 b 61 26 138 65 91 42 b 22 2 47 19 35 9 b 9 8 19 1 11 4 b 8 21 7 11 6 18 b 28 55 14 30 21 47 b 126 227 75 107 105 161 b 120 390 144 284 138 335 b 98 462 112 413 105 438 l 220 459 b 234 399 225 438 229 420 b 205 251 247 345 231 296 b 146 163 187 220 167 192 b 87 82 142 158 120 124 b 162 122 114 93 139 113 b 301 142 203 139 258 149 b 398 111 334 136 365 120 b 544 149 439 100 501 105 b 578 176 551 157 571 169 b 597 183 581 179 591 191 m 296 1013 b 244 1065 267 1013 244 1036 b 296 1117 244 1093 268 1117 b 347 1065 323 1117 347 1093 b 296 1013 347 1036 324 1013 m 465 1013 b 413 1065 437 1013 413 1036 b 465 1117 413 1093 437 1117 b 516 1065 493 1117 516 1093 b 465 1013 516 1036 493 1013 "},"":{"ha":301,"x_min":0,"x_max":0,"o":"m 263 108 b 282 92 269 105 286 97 b 211 15 260 67 235 37 b 186 5 198 3 201 -6 b 142 28 179 10 150 24 b 92 94 89 64 92 67 b 92 106 92 95 92 100 b 92 108 92 107 92 107 b 92 128 92 115 92 122 b 92 168 92 146 92 165 b 92 169 92 168 92 169 b 91 238 91 187 91 205 b 92 443 92 306 92 374 b 92 817 92 568 93 692 b 92 865 92 832 93 850 b 41 934 89 898 76 923 b 17 938 32 936 29 936 b 17 958 17 948 13 958 b 273 958 45 958 244 958 b 265 938 273 950 271 939 b 201 833 209 925 200 882 b 202 412 202 693 201 553 b 201 171 202 331 201 251 b 202 171 201 171 201 171 b 201 163 202 169 201 165 b 217 132 201 146 202 141 b 263 108 231 124 250 115 m 245 991 l 44 1060 l 95 1147 l 253 997 "},"":{"ha":301,"x_min":0,"x_max":0,"o":"m 263 108 b 282 92 269 105 286 97 b 211 15 260 67 235 37 b 186 5 198 3 201 -6 b 142 28 179 10 150 24 b 92 94 89 64 92 67 b 92 106 92 95 92 100 b 92 108 92 107 92 107 b 92 128 92 115 92 122 b 92 168 92 146 92 165 b 92 169 92 168 92 169 b 91 238 91 187 91 205 b 92 443 92 306 92 374 b 92 817 92 568 93 692 b 92 865 92 832 93 850 b 41 934 89 898 76 923 b 17 938 32 936 29 936 b 17 958 17 948 13 958 b 273 958 45 958 244 958 b 265 938 273 950 271 939 b 201 833 209 925 200 882 b 202 412 202 693 201 553 b 201 171 202 331 201 251 b 202 171 201 171 201 171 b 201 163 202 169 201 165 b 217 132 201 146 202 141 b 263 108 231 124 250 115 m 54 991 l 46 997 l 200 1147 l 252 1060 "},"":{"ha":301,"x_min":0,"x_max":0,"o":"m 263 108 b 282 92 269 105 286 97 b 211 15 260 67 235 37 b 186 5 198 3 201 -6 b 143 28 179 10 150 24 b 92 94 89 64 92 67 b 92 106 92 95 92 100 b 92 108 92 107 92 107 b 92 128 92 115 92 122 b 92 168 92 146 92 165 b 92 169 92 168 92 169 b 91 238 91 187 91 205 b 92 443 92 306 92 374 b 92 817 92 568 93 692 b 92 865 92 832 93 850 b 41 934 89 898 76 923 b 17 938 32 936 29 936 b 17 958 17 948 13 958 b 273 958 45 958 244 958 b 265 938 273 950 271 939 b 201 833 209 925 201 882 b 202 412 202 693 201 553 b 201 171 202 331 201 251 b 202 171 201 171 201 171 b 201 163 202 169 201 165 b 217 132 201 146 202 141 b 263 108 231 124 250 115 m 24 984 l 15 994 l 145 1137 l 153 1137 l 282 994 l 274 984 l 149 1045 "},"":{"ha":300,"x_min":0,"x_max":0,"o":"m 263 108 b 281 92 269 105 286 97 b 211 15 260 67 234 37 b 186 5 198 3 201 -6 b 142 28 179 10 149 24 b 92 94 89 64 92 67 b 92 106 92 95 92 100 b 92 108 92 107 92 107 b 92 128 92 115 92 122 b 91 168 92 146 92 165 b 92 169 91 168 91 169 b 91 238 91 187 90 205 b 92 443 92 306 92 374 b 92 817 91 568 92 692 b 92 865 91 832 93 850 b 41 934 89 898 75 923 b 17 938 32 936 29 936 b 17 958 17 948 13 958 b 272 958 44 958 244 958 b 265 938 272 950 270 939 b 201 833 209 925 200 882 b 201 412 202 693 201 553 b 201 171 202 331 201 251 b 201 171 201 171 201 171 b 201 163 201 169 201 165 b 217 132 201 146 202 141 b 263 108 230 124 249 115 m 64 1013 b 13 1065 36 1013 13 1036 b 64 1117 13 1093 36 1117 b 115 1065 92 1117 115 1093 b 64 1013 115 1036 92 1013 m 233 1013 b 182 1065 205 1013 182 1036 b 233 1117 182 1093 205 1117 b 285 1065 261 1117 285 1093 b 233 1013 285 1036 262 1013 "},"":{"ha":651,"x_min":0,"x_max":0,"o":"m 597 697 b 616 414 630 612 626 505 b 519 142 610 336 559 208 b 338 4 477 75 400 17 b 291 0 312 -2 318 0 b 201 14 248 0 224 15 b 123 -2 155 13 126 -2 b 122 18 121 3 122 12 b 123 379 122 138 123 259 b 123 444 123 400 123 422 l 46 444 l 46 474 l 123 474 b 122 625 123 525 123 577 b 122 657 122 636 122 646 b 74 744 120 704 116 714 b 172 794 91 753 155 785 b 227 819 188 803 224 819 b 234 789 236 817 234 806 b 233 474 234 720 234 597 l 376 474 l 376 444 l 233 444 b 233 266 233 381 233 319 b 233 180 233 214 232 233 b 233 138 233 166 233 155 b 299 31 233 68 266 32 b 478 165 364 31 432 86 b 543 412 520 237 543 331 b 530 564 543 465 540 516 b 430 755 514 637 481 700 b 250 851 379 810 324 840 b 63 844 186 860 125 859 b 14 831 50 841 39 835 b 88 944 30 865 64 916 b 117 963 95 953 106 962 b 442 896 241 973 334 966 b 597 697 520 846 565 781 "},"":{"ha":674,"x_min":0,"x_max":0,"o":"m 637 108 b 655 92 643 105 660 97 b 588 15 634 67 612 37 b 563 5 575 3 578 -6 b 520 28 556 10 527 24 b 470 94 466 64 470 67 b 470 113 470 95 470 103 b 469 113 469 113 469 113 b 469 119 469 115 469 117 b 469 168 469 139 469 165 b 469 170 469 169 469 170 b 469 238 469 188 468 203 b 470 443 470 306 470 374 b 469 793 469 560 470 676 l 470 793 l 470 830 b 470 863 470 841 470 852 l 470 929 b 400 887 448 917 417 899 b 221 771 350 852 270 805 b 201 754 211 765 205 760 b 202 412 202 640 201 527 b 201 65 202 296 201 181 b 201 15 201 52 202 29 l 92 15 b 91 238 92 76 90 176 b 92 443 92 306 92 374 b 92 817 92 568 93 692 b 92 865 92 832 93 850 b 41 934 89 898 76 923 b 17 938 32 936 29 936 b 17 958 17 948 13 958 l 201 958 l 201 854 b 201 853 201 854 201 853 b 201 833 201 847 201 840 b 201 792 201 819 201 806 b 205 794 202 793 204 793 b 262 827 226 804 246 818 b 434 937 315 859 382 901 b 470 958 444 944 460 958 l 579 958 l 579 854 b 579 853 579 854 579 853 b 579 833 579 847 578 840 b 579 412 580 693 579 553 b 579 171 579 331 579 251 b 579 171 579 171 579 171 b 579 166 579 170 579 168 b 579 153 579 162 579 158 b 595 132 579 144 583 139 b 637 108 608 124 623 115 m 216 983 l 205 986 l 205 989 b 283 1100 207 1028 208 1100 b 343 1082 310 1100 321 1093 b 402 1062 365 1072 376 1062 b 455 1109 428 1062 442 1072 l 456 1112 l 467 1109 l 467 1106 b 388 996 465 1068 464 996 b 328 1013 362 996 351 1003 b 270 1033 306 1023 296 1033 b 217 986 244 1033 230 1023 "},"":{"ha":661,"x_min":0,"x_max":0,"o":"m 496 864 b 635 450 586 751 640 634 b 516 156 633 357 589 252 b 359 13 472 99 415 57 b 291 11 337 -4 315 -4 b 112 189 216 55 157 116 b 58 296 91 223 74 260 b 25 521 27 368 20 443 b 81 711 30 588 53 650 b 252 919 120 795 183 860 b 303 956 266 931 286 946 b 382 958 337 975 349 979 b 496 864 422 932 466 900 m 537 349 b 539 403 539 367 539 385 b 475 682 537 502 516 591 b 320 889 440 759 387 837 b 249 886 291 912 279 916 b 121 605 175 810 125 714 b 174 331 117 510 136 419 b 352 99 213 238 269 158 b 427 97 383 77 399 73 b 496 191 456 123 479 156 b 537 349 520 240 533 294 m 426 991 l 225 1060 l 276 1147 l 434 997 "},"":{"ha":661,"x_min":0,"x_max":0,"o":"m 496 864 b 635 450 586 751 640 634 b 516 156 633 357 589 252 b 359 13 472 99 415 57 b 291 11 337 -4 315 -4 b 112 189 216 55 157 116 b 58 296 91 223 74 260 b 25 521 27 368 20 443 b 81 711 30 588 53 650 b 252 919 120 795 183 860 b 303 956 266 931 286 946 b 382 958 337 975 349 979 b 496 864 422 932 466 900 m 537 349 b 539 403 539 367 539 385 b 475 682 537 502 516 591 b 320 889 440 759 387 837 b 249 886 291 912 279 916 b 121 605 175 810 125 714 b 174 331 117 510 136 419 b 352 99 213 238 269 158 b 427 97 383 77 399 73 b 496 191 456 123 479 156 b 537 349 520 240 533 294 m 234 991 l 226 997 l 380 1147 l 432 1060 "},"":{"ha":661,"x_min":0,"x_max":0,"o":"m 496 864 b 635 450 586 751 640 634 b 516 156 633 357 589 252 b 359 13 472 99 415 57 b 291 11 337 -4 315 -4 b 112 189 216 55 157 116 b 58 296 91 223 74 260 b 25 521 27 368 20 443 b 81 711 30 588 53 650 b 252 919 120 795 183 860 b 303 956 266 931 286 946 b 382 958 337 975 349 979 b 496 864 422 932 466 900 m 537 349 b 539 403 539 367 539 385 b 475 682 537 502 516 591 b 320 889 440 759 387 837 b 249 886 291 912 279 916 b 121 605 175 810 125 714 b 174 331 117 510 136 419 b 352 99 213 238 269 158 b 427 97 383 77 399 73 b 496 191 456 123 479 156 b 537 349 520 240 533 294 m 204 984 l 196 994 l 325 1137 l 333 1137 l 463 994 l 454 984 l 329 1045 "},"":{"ha":661,"x_min":0,"x_max":0,"o":"m 496 864 b 635 450 586 751 640 634 b 516 156 633 357 589 252 b 359 13 472 99 415 57 b 291 11 337 -4 315 -4 b 112 189 216 55 157 116 b 58 296 91 223 74 260 b 25 521 27 368 20 443 b 81 711 30 588 53 650 b 252 919 120 795 183 860 b 303 956 266 931 286 946 b 382 958 337 975 349 979 b 496 864 422 932 466 900 m 537 349 b 539 403 539 367 539 385 b 475 682 537 502 516 591 b 320 889 440 759 387 837 b 249 886 290 912 279 916 b 121 605 175 810 125 714 b 174 331 117 510 136 419 b 352 99 213 238 269 158 b 427 97 383 77 399 73 b 496 191 456 123 479 156 b 537 349 520 240 533 294 m 209 983 l 198 986 l 198 989 b 277 1100 201 1028 201 1100 b 337 1082 303 1100 314 1093 b 395 1062 359 1072 369 1062 b 448 1109 422 1062 435 1072 l 449 1112 l 460 1109 l 460 1106 b 382 996 458 1068 457 996 b 322 1013 355 996 344 1003 b 263 1033 300 1023 289 1033 b 210 986 237 1033 223 1023 "},"":{"ha":661,"x_min":0,"x_max":0,"o":"m 496 864 b 635 450 586 751 640 634 b 516 156 633 357 589 252 b 359 13 472 99 415 57 b 291 11 337 -4 315 -4 b 112 189 216 55 157 116 b 58 296 91 223 74 260 b 25 521 27 368 20 443 b 81 711 30 588 53 650 b 252 919 120 795 183 860 b 303 956 266 931 286 946 b 382 958 337 975 349 979 b 496 864 422 932 466 900 m 537 349 b 539 403 539 367 539 385 b 475 682 537 502 516 591 b 320 889 440 759 387 837 b 249 886 290 912 279 916 b 121 605 175 810 125 714 b 174 331 117 510 136 419 b 352 99 213 238 269 158 b 427 97 383 77 399 73 b 496 191 456 123 479 156 b 537 349 520 240 533 294 m 245 1013 b 193 1065 216 1013 193 1036 b 245 1117 193 1093 217 1117 b 296 1065 272 1117 296 1093 b 245 1013 296 1036 273 1013 m 414 1013 b 363 1065 386 1013 363 1036 b 414 1117 363 1093 386 1117 b 465 1065 442 1117 465 1093 b 414 1013 465 1036 442 1013 "},"":{"ha":668,"x_min":0,"x_max":0,"o":"m 525 831 b 639 450 600 728 644 616 b 520 156 637 357 593 252 b 363 13 476 99 419 56 b 295 10 341 -4 319 -4 b 168 118 246 40 204 76 l 116 14 l 78 14 l 145 147 b 116 189 135 160 125 174 b 62 296 95 223 78 259 b 30 521 31 368 24 443 b 85 711 34 588 57 650 b 256 919 124 795 187 859 b 307 955 270 931 290 946 b 386 958 341 975 353 979 b 500 863 426 932 470 900 b 502 860 501 862 502 861 l 551 958 l 589 958 l 525 831 m 178 331 b 207 270 187 310 196 290 l 445 746 b 324 889 413 801 372 851 b 253 886 295 911 283 916 b 125 605 180 810 129 714 b 178 331 121 509 141 419 m 541 349 b 543 403 543 367 544 385 b 479 682 542 502 520 591 b 465 711 475 692 470 701 l 227 236 b 357 98 261 183 303 136 b 431 97 387 77 403 73 b 500 191 460 123 483 156 b 541 349 524 240 537 294 "},"":{"ha":675,"x_min":0,"x_max":0,"o":"m 637 108 b 655 92 642 105 660 97 b 584 15 634 67 608 37 b 560 5 572 3 575 -6 b 516 28 553 10 523 24 b 465 94 462 64 465 67 b 465 168 465 98 466 164 b 465 169 465 168 465 169 b 433 151 458 166 439 155 b 249 12 374 106 308 57 b 195 14 233 0 224 -8 b 98 103 163 39 123 71 b 31 292 55 157 35 220 b 104 589 26 397 50 500 b 183 715 130 633 157 670 b 249 832 199 743 237 802 b 220 858 259 856 250 858 b 122 858 192 858 154 858 b 61 858 106 858 83 857 b 110 958 74 886 104 958 b 296 958 162 958 245 958 b 327 958 305 958 315 958 b 317 922 325 947 320 931 b 218 712 286 852 253 777 b 183 622 203 683 195 652 b 130 377 151 544 131 462 b 188 179 129 304 148 239 b 204 158 193 171 198 165 b 368 139 252 103 310 95 b 416 175 386 152 398 162 b 465 262 445 198 465 221 b 465 262 465 262 465 262 b 466 443 466 322 466 383 b 466 817 466 568 467 692 b 466 865 466 832 467 850 b 415 934 463 898 449 923 b 391 938 406 936 403 936 b 391 958 391 948 387 958 l 646 958 b 639 938 646 950 644 939 b 575 833 583 925 574 882 b 575 412 576 693 575 553 b 575 168 576 330 575 249 l 575 168 b 575 163 575 166 575 164 b 591 132 574 146 575 141 b 637 108 604 124 623 115 m 440 991 l 239 1060 l 290 1147 l 448 997 "},"":{"ha":675,"x_min":0,"x_max":0,"o":"m 637 108 b 655 92 642 105 660 97 b 584 15 634 67 608 37 b 560 5 572 3 575 -6 b 516 28 553 10 523 24 b 465 94 462 64 465 67 b 465 168 465 98 466 164 b 465 169 465 168 465 169 b 433 151 458 166 439 155 b 249 12 374 106 308 57 b 195 14 233 0 224 -8 b 98 103 163 39 123 71 b 31 292 55 157 35 220 b 104 589 26 397 50 500 b 183 715 130 633 157 670 b 249 832 199 743 237 802 b 220 858 259 856 250 858 b 122 858 192 858 154 858 b 61 858 106 858 83 857 b 110 958 74 886 104 958 b 296 958 162 958 245 958 b 327 958 305 958 315 958 b 317 922 325 947 320 931 b 218 712 286 852 253 777 b 183 622 203 683 195 652 b 130 377 151 544 131 462 b 188 179 129 304 148 239 b 204 158 193 171 198 165 b 368 139 252 103 310 95 b 416 175 386 152 398 162 b 465 262 445 198 465 221 b 465 262 465 262 465 262 b 466 443 466 322 466 383 b 466 817 466 568 467 692 b 466 865 466 832 467 850 b 415 934 463 898 449 923 b 391 938 406 936 403 936 b 391 958 391 948 387 958 l 646 958 b 639 938 646 950 644 939 b 575 833 583 925 574 882 b 575 412 576 693 575 553 b 575 168 576 330 575 249 l 575 168 b 575 163 575 166 575 164 b 591 132 574 146 575 141 b 637 108 604 124 623 115 m 248 991 l 240 997 l 394 1147 l 446 1060 "},"":{"ha":675,"x_min":0,"x_max":0,"o":"m 637 108 b 655 92 642 105 660 97 b 584 15 634 67 608 37 b 560 5 572 3 575 -6 b 516 28 553 10 523 24 b 465 94 462 64 465 67 b 465 168 465 98 466 164 b 465 169 465 168 465 169 b 433 151 458 166 439 155 b 249 12 374 106 308 57 b 195 14 233 0 224 -8 b 98 103 163 39 123 71 b 31 292 55 157 35 220 b 104 589 26 397 50 500 b 183 715 130 633 157 670 b 249 832 199 743 237 802 b 220 858 259 856 250 858 b 122 858 192 858 154 858 b 61 858 106 858 83 857 b 110 958 74 886 104 958 b 296 958 162 958 245 958 b 327 958 305 958 315 958 b 317 922 325 947 320 931 b 218 712 286 852 253 777 b 183 622 203 683 195 652 b 130 377 151 544 131 462 b 188 179 129 304 148 239 b 204 158 193 171 198 165 b 368 139 252 103 310 95 b 416 175 386 152 398 162 b 465 262 445 198 465 221 b 465 262 465 262 465 262 b 466 443 466 322 466 383 b 466 817 466 568 467 692 b 466 865 466 832 467 850 b 415 934 463 898 449 923 b 391 938 406 936 403 936 b 391 958 391 948 387 958 l 646 958 b 639 938 646 950 644 939 b 575 833 583 925 574 882 b 575 412 576 693 575 553 b 575 168 576 330 575 249 l 575 168 b 575 163 575 166 575 164 b 591 132 574 146 575 141 b 637 108 604 124 623 115 m 218 984 l 210 994 l 339 1137 l 347 1137 l 477 994 l 468 984 l 343 1045 "},"":{"ha":675,"x_min":0,"x_max":0,"o":"m 637 108 b 655 92 642 105 660 97 b 584 15 634 67 608 37 b 560 5 572 3 575 -6 b 516 28 553 10 523 24 b 465 94 462 64 465 67 b 465 168 465 98 466 164 b 465 169 465 168 465 169 b 433 151 458 166 439 155 b 249 12 374 106 308 57 b 195 14 233 0 224 -8 b 98 103 163 39 123 71 b 31 292 55 157 35 220 b 104 589 26 397 50 500 b 183 715 130 633 157 670 b 249 832 199 743 237 802 b 220 858 259 856 250 858 b 122 858 192 858 154 858 b 61 858 106 858 83 857 b 110 958 74 886 104 958 b 296 958 162 958 245 958 b 327 958 305 958 315 958 b 317 922 325 947 320 931 b 218 712 286 852 253 777 b 183 622 203 683 195 652 b 130 377 151 544 131 462 b 188 179 129 304 148 239 b 204 158 193 171 198 165 b 368 139 252 103 310 95 b 416 175 386 152 398 162 b 465 262 445 198 465 221 b 465 262 465 262 465 262 b 466 443 466 322 466 383 b 466 817 466 568 467 692 b 466 865 466 832 467 850 b 415 934 463 898 449 923 b 391 938 406 936 403 936 b 391 958 391 948 387 958 l 646 958 b 639 938 646 950 644 939 b 575 833 583 925 574 882 b 575 412 576 693 575 553 b 575 168 576 330 575 249 l 575 168 b 575 163 575 166 575 164 b 591 132 574 146 575 141 b 637 108 604 124 623 115 m 259 1013 b 207 1065 230 1013 207 1036 b 259 1117 207 1093 231 1117 b 310 1065 286 1117 310 1093 b 259 1013 310 1036 287 1013 m 428 1013 b 377 1065 400 1013 377 1036 b 428 1117 377 1093 400 1117 b 479 1065 456 1117 479 1093 b 428 1013 479 1036 456 1013 "},"":{"ha":694,"x_min":0,"x_max":0,"o":"m 595 847 b 671 552 645 756 683 657 b 535 204 656 429 601 305 b 147 -152 436 52 309 -67 b 77 -183 124 -164 100 -173 b -9 -160 42 -197 14 -191 b -61 -94 -23 -141 -39 -122 b -7 -90 -36 -92 -22 -90 b 136 -81 41 -91 89 -89 b 315 -5 202 -70 260 -41 b 350 62 337 10 358 37 b 319 149 340 91 330 120 b 154 630 260 316 213 463 b 74 858 127 706 100 781 b 48 906 68 877 59 893 b 12 933 31 924 17 931 b -12 938 4 935 1 935 b -11 957 -12 947 -15 957 l 123 957 b 123 957 123 957 123 957 b 164 926 145 958 157 946 b 197 834 175 895 186 865 b 282 586 225 752 253 669 b 420 189 331 447 370 328 b 444 122 426 171 437 141 b 451 130 449 125 447 126 b 598 464 526 224 581 343 b 545 737 611 557 586 651 b 373 889 510 809 453 865 b 362 891 370 890 364 889 b 354 899 361 892 356 895 b 466 970 389 922 429 950 b 497 962 476 975 487 971 b 595 847 535 931 572 890 m 211 990 l 203 997 l 357 1146 l 409 1060 "},"":{"ha":572,"x_min":0,"x_max":0,"o":"m 560 680 b 513 501 565 628 543 542 b 404 379 482 459 444 412 b 291 296 390 368 309 310 b 291 297 291 296 291 297 b 201 241 269 283 228 259 b 201 154 201 212 201 183 b 217 134 202 145 206 141 b 259 109 230 126 246 117 b 278 93 265 106 283 99 b 210 16 257 69 234 38 b 186 6 198 4 201 -4 b 142 30 179 11 149 25 b 92 95 88 66 92 69 b 92 114 92 97 92 104 b 92 114 92 114 92 114 b 92 117 92 115 92 116 b 91 169 92 138 91 167 b 92 172 91 170 91 171 b 91 239 91 190 91 206 b 92 445 92 308 92 376 b 92 819 92 570 93 694 b 92 867 92 834 93 852 b 41 935 89 900 76 925 b 17 940 32 938 29 938 b 17 960 17 950 13 960 l 201 960 l 201 856 b 201 855 201 855 201 855 b 201 835 201 848 201 842 b 201 746 201 805 201 776 b 235 759 217 742 226 752 b 361 857 277 791 319 824 b 454 860 405 891 409 892 b 560 680 517 816 553 755 m 439 500 b 447 708 470 553 472 653 b 277 761 413 782 337 802 b 222 723 259 748 241 735 b 202 702 213 717 206 710 b 202 414 202 606 201 510 b 201 277 202 368 202 322 b 240 298 216 284 233 293 b 379 404 291 330 338 360 b 439 500 401 429 423 470 "},"":{"ha":624,"x_min":0,"x_max":0,"o":"m 541 453 b 601 274 583 400 601 341 b 303 0 601 134 479 -1 b 226 10 294 0 263 6 l 226 63 b 302 38 249 51 258 38 b 436 124 363 38 415 79 b 443 414 474 207 478 334 b 295 527 408 495 358 528 b 230 517 259 527 264 529 b 223 512 227 516 227 514 l 223 544 b 319 579 264 557 279 560 b 416 770 393 614 431 691 b 222 861 399 858 305 909 b 189 842 213 856 198 847 b 166 774 166 830 165 802 b 166 768 166 772 166 770 b 166 411 167 649 166 530 b 166 63 167 294 165 180 b 166 13 166 50 167 27 l 56 13 b 56 51 56 13 56 46 b 56 236 58 112 55 174 b 57 441 57 304 57 373 b 56 718 56 566 57 593 b 56 719 56 718 56 718 b 120 832 56 765 80 808 l 166 860 l 166 860 b 263 915 200 879 235 899 b 360 971 296 933 324 953 b 513 774 446 942 509 860 b 468 637 516 725 501 673 b 391 579 443 611 424 595 b 360 564 378 573 373 569 b 408 550 383 559 392 555 b 541 453 469 532 501 503 "},"":{"ha":506,"x_min":0,"x_max":0,"o":"m 427 118 b 489 65 427 102 489 65 b 436 5 463 36 460 28 b 423 0 431 0 431 -1 b 327 71 420 1 327 62 b 327 140 327 82 327 109 b 324 138 326 140 325 139 b 319 133 322 137 320 135 b 241 65 287 102 276 92 b 166 0 213 41 199 30 b 25 155 103 33 36 77 b 124 368 11 251 54 314 b 280 447 178 409 216 426 b 322 512 321 461 322 478 b 322 556 322 521 322 547 b 243 614 322 613 293 622 b 137 593 209 609 171 600 b 100 589 125 590 113 588 b 77 598 92 589 84 593 b 82 633 65 608 67 628 b 118 636 93 636 106 637 b 173 629 135 635 156 631 b 298 694 222 624 272 654 b 347 708 316 717 311 721 b 424 600 398 689 424 651 b 424 470 424 557 426 512 b 425 402 424 449 425 423 b 425 273 425 357 425 316 l 425 273 b 427 118 426 254 427 127 m 299 155 b 323 210 316 173 324 186 b 323 417 322 280 323 347 b 323 441 323 424 323 433 b 154 327 252 428 189 380 b 132 158 120 275 110 215 b 241 110 152 105 190 88 b 299 155 268 122 276 134 m 350 730 l 149 800 l 200 887 l 358 737 "},"":{"ha":506,"x_min":0,"x_max":0,"o":"m 427 118 b 489 65 427 102 489 65 b 436 5 463 36 460 28 b 423 0 431 0 431 -1 b 327 71 420 1 327 62 b 327 140 327 82 327 109 b 324 138 326 140 325 139 b 319 133 322 137 320 135 b 241 65 287 102 276 92 b 166 0 213 41 199 30 b 25 155 103 33 36 77 b 124 368 11 251 54 314 b 280 447 178 409 216 426 b 322 512 321 461 322 478 b 322 556 322 521 322 547 b 243 614 322 613 293 622 b 137 593 209 609 171 600 b 100 589 125 590 113 588 b 77 598 92 589 84 593 b 82 633 65 608 67 628 b 118 636 93 636 106 637 b 173 629 135 635 156 631 b 298 694 222 624 272 654 b 347 708 316 717 311 721 b 424 600 398 689 424 651 b 424 470 424 557 426 512 b 425 402 424 449 425 423 b 425 273 425 357 425 316 l 425 273 b 427 118 426 254 427 127 m 299 155 b 323 210 316 173 324 186 b 323 417 322 280 323 347 b 323 441 323 424 323 433 b 154 327 252 428 189 380 b 132 158 120 275 110 215 b 241 110 152 105 190 88 b 299 155 268 122 276 134 m 161 730 l 153 737 l 307 887 l 358 800 "},"":{"ha":506,"x_min":0,"x_max":0,"o":"m 427 118 b 489 65 427 102 489 65 b 436 5 463 36 460 28 b 423 0 431 0 431 -1 b 327 71 420 1 327 62 b 327 140 327 82 327 109 b 324 138 326 140 325 139 b 319 133 322 137 320 135 b 241 65 287 102 276 92 b 166 0 213 41 199 30 b 25 155 103 33 36 77 b 124 368 11 251 54 314 b 280 447 178 409 216 426 b 322 512 321 461 322 478 b 322 556 322 521 322 547 b 243 614 322 613 293 622 b 137 593 209 609 171 600 b 100 589 125 590 113 588 b 77 598 92 589 84 593 b 82 633 65 608 67 628 b 118 636 93 636 106 637 b 173 629 135 635 156 631 b 298 694 222 624 272 654 b 347 708 316 717 311 721 b 424 600 398 689 424 651 b 424 470 424 557 426 512 b 425 402 424 449 425 423 b 425 273 425 357 425 316 l 425 273 b 427 118 426 254 427 127 m 299 155 b 323 210 316 173 324 186 b 323 417 322 280 323 347 b 323 441 323 424 323 433 b 154 327 252 428 189 380 b 132 158 120 275 110 215 b 241 110 152 105 190 88 b 299 155 268 122 276 134 m 131 723 l 122 733 l 251 877 l 260 877 l 389 733 l 380 723 l 256 784 "},"":{"ha":506,"x_min":0,"x_max":0,"o":"m 427 118 b 489 65 427 102 489 65 b 436 5 463 36 460 28 b 423 0 431 0 431 -1 b 327 71 420 1 327 62 b 327 140 327 82 327 109 b 324 138 326 140 325 139 b 319 133 322 137 320 135 b 241 65 287 102 276 92 b 166 0 213 41 199 30 b 25 155 103 33 36 77 b 124 368 11 251 54 314 b 280 447 178 409 216 426 b 322 512 321 461 322 478 b 322 556 322 521 322 547 b 243 614 322 613 293 622 b 137 593 209 609 171 600 b 100 589 125 590 113 588 b 77 598 92 589 84 593 b 82 633 65 608 67 628 b 118 636 93 636 106 637 b 173 629 135 635 156 631 b 298 694 222 624 272 654 b 347 708 316 717 311 721 b 424 600 398 689 424 651 b 424 470 424 557 426 512 b 425 402 424 449 425 423 b 425 273 425 357 425 316 l 425 273 b 427 118 426 254 427 127 m 299 155 b 323 210 316 173 324 186 b 323 417 322 280 323 347 b 323 441 323 424 323 433 b 154 327 252 428 189 380 b 132 158 120 275 110 215 b 241 110 152 105 190 88 b 299 155 268 122 276 134 m 135 723 l 125 726 l 125 729 b 203 839 127 767 127 839 b 263 822 230 839 241 832 b 322 802 285 812 295 802 b 375 848 348 802 362 811 l 376 851 l 387 848 l 386 845 b 308 735 384 807 384 735 b 248 752 281 735 270 742 b 189 773 226 763 216 773 b 136 726 163 773 149 763 "},"":{"ha":506,"x_min":0,"x_max":0,"o":"m 427 118 b 489 65 427 102 489 65 b 436 5 463 36 460 28 b 423 0 431 0 431 -1 b 327 71 420 1 327 62 b 327 140 327 82 327 109 b 324 138 326 140 325 139 b 319 133 322 137 320 135 b 241 65 287 102 276 92 b 166 0 213 41 199 30 b 25 155 103 33 36 77 b 124 368 11 251 54 314 b 280 447 178 409 216 426 b 322 512 321 461 322 478 b 322 556 322 521 322 547 b 243 614 322 613 293 622 b 137 593 209 609 171 600 b 100 589 125 590 113 588 b 77 598 92 589 84 593 b 82 633 65 608 67 628 b 118 636 93 636 106 637 b 173 629 135 635 156 631 b 298 694 222 624 272 654 b 347 708 316 717 311 721 b 424 600 398 689 424 651 b 424 470 424 557 426 512 b 425 402 424 449 425 423 b 425 273 425 357 425 316 l 425 273 b 427 118 426 254 427 127 m 299 155 b 323 210 316 173 324 186 b 323 417 322 280 323 347 b 323 441 323 424 323 433 b 154 327 252 428 189 380 b 132 158 120 275 110 215 b 241 110 152 105 190 88 b 299 155 268 122 276 134 m 171 753 b 119 804 142 753 119 776 b 171 856 119 832 143 856 b 222 804 199 856 222 832 b 171 753 222 776 199 753 m 340 753 b 289 804 312 753 289 776 b 340 856 289 832 312 856 b 392 804 368 856 392 832 b 340 753 392 776 369 753 "},"":{"ha":506,"x_min":0,"x_max":0,"o":"m 427 118 b 489 65 427 102 489 65 b 436 5 463 36 460 28 b 423 0 431 0 431 -1 b 327 71 420 1 327 62 b 327 140 327 82 327 109 b 324 138 326 140 325 139 b 319 133 322 137 320 135 b 241 65 287 102 276 92 b 166 0 213 41 199 30 b 25 155 103 33 36 77 b 124 368 11 251 54 314 b 280 447 178 409 216 426 b 322 512 321 461 322 478 b 322 556 322 521 322 547 b 243 614 322 613 293 622 b 137 593 209 609 171 600 b 100 589 125 590 113 588 b 77 598 92 589 84 593 b 82 633 65 608 67 628 b 118 636 93 636 106 637 b 173 629 135 635 156 631 b 298 694 222 624 272 654 b 347 708 316 717 311 721 b 424 600 398 689 424 651 b 424 470 424 557 426 512 b 425 402 424 449 425 423 b 425 273 425 357 425 316 l 425 273 b 427 118 426 254 427 127 m 299 155 b 323 210 316 173 324 186 b 323 417 322 280 323 347 b 323 441 323 424 323 433 b 154 327 252 428 189 380 b 132 158 120 275 110 215 b 241 110 152 105 190 88 b 299 155 268 122 276 134 m 256 725 b 178 802 208 725 178 757 b 256 880 178 847 208 880 b 333 802 303 880 333 847 b 256 725 333 757 303 725 m 256 857 b 222 802 231 857 222 836 b 256 748 222 768 230 748 b 289 802 281 748 289 768 b 256 857 289 836 281 857 "},"":{"ha":740,"x_min":0,"x_max":0,"o":"m 705 118 b 713 107 709 116 713 107 b 590 13 679 82 632 45 b 536 6 573 0 557 -3 b 365 159 457 38 400 90 b 241 65 319 127 263 83 b 166 0 213 41 199 30 b 25 155 103 33 36 77 b 124 368 11 251 54 314 b 280 447 178 408 216 426 b 322 512 321 460 322 478 b 322 555 322 521 322 547 b 243 614 322 613 293 622 b 137 593 209 609 171 600 b 100 589 125 590 113 588 b 77 598 92 589 84 593 b 82 633 65 608 67 628 b 118 636 93 636 106 637 b 173 629 135 635 156 631 b 298 694 222 624 272 654 b 347 707 316 717 311 721 b 424 600 398 689 424 651 b 424 594 424 598 424 596 b 577 715 468 643 523 683 b 617 675 588 710 599 693 b 705 540 644 631 679 584 b 724 497 712 528 716 515 b 652 452 697 480 674 466 b 422 299 596 417 488 342 b 437 252 426 284 431 268 b 562 108 464 186 493 134 b 673 110 595 95 640 94 b 705 118 686 117 697 127 m 439 546 b 414 334 412 473 402 406 b 636 483 476 368 613 461 b 623 508 634 491 628 499 b 550 625 601 545 573 587 b 527 654 541 638 536 649 b 439 546 494 634 451 577 m 299 152 b 323 210 316 169 324 186 b 323 417 322 280 323 347 b 323 441 323 424 323 433 b 154 327 252 428 189 379 b 132 157 120 275 110 215 b 241 110 152 105 190 88 b 299 152 268 122 276 131 "},"":{"ha":428,"x_min":0,"x_max":0,"o":"m 198 -27 b 306 -62 236 -27 278 -33 b 313 -139 329 -86 327 -118 b 221 -178 291 -170 254 -178 b 119 -116 166 -178 121 -149 l 136 -107 b 195 -150 144 -136 169 -150 b 243 -101 224 -150 243 -133 b 155 -47 243 -67 203 -45 l 199 23 b 34 259 109 73 55 152 b 89 545 15 358 31 460 b 280 714 136 615 209 672 b 405 585 308 702 373 616 b 387 568 397 578 393 572 b 315 552 340 533 342 532 b 227 650 290 569 252 636 b 142 545 194 630 154 575 b 140 251 104 445 100 356 b 265 106 167 184 196 132 b 376 109 297 94 343 93 b 408 117 389 115 400 126 b 416 106 412 114 416 106 b 293 12 382 81 335 44 b 239 4 275 -1 260 -5 b 220 13 232 7 226 10 l 198 -27 "},"":{"ha":443,"x_min":0,"x_max":0,"o":"m 408 118 b 416 107 412 116 416 107 b 293 13 382 82 335 45 b 239 6 275 0 260 -3 b 34 260 125 53 58 138 b 27 359 28 293 25 326 b 27 363 27 360 27 362 b 27 363 27 363 27 363 b 89 546 31 428 51 491 b 280 715 136 616 209 673 b 320 676 291 710 302 693 b 408 540 347 632 382 584 b 427 497 415 528 419 515 b 355 452 400 480 377 466 b 125 299 299 417 191 342 b 140 253 129 284 134 268 b 265 108 167 186 196 134 b 376 110 297 95 343 94 b 408 118 389 117 400 127 m 142 546 b 117 334 115 473 105 406 b 339 483 179 368 316 461 b 326 508 337 492 331 499 b 253 625 304 546 276 587 b 229 654 244 639 239 649 b 142 546 197 634 154 577 m 323 730 l 122 800 l 173 887 l 331 737 "},"":{"ha":443,"x_min":0,"x_max":0,"o":"m 408 118 b 416 107 412 116 416 107 b 293 13 382 82 335 45 b 239 6 275 0 260 -3 b 34 260 125 53 58 138 b 27 359 28 293 25 326 b 27 363 27 360 27 362 b 27 363 27 363 27 363 b 89 546 31 428 51 491 b 280 715 136 616 209 673 b 320 676 291 710 302 693 b 408 540 347 632 382 584 b 427 497 415 528 419 515 b 355 452 400 480 377 466 b 125 299 299 417 191 342 b 140 253 129 284 134 268 b 265 108 167 186 196 134 b 376 110 297 95 343 94 b 408 118 389 117 400 127 m 142 546 b 117 334 115 473 105 406 b 339 483 179 368 316 461 b 326 508 337 492 331 499 b 253 625 304 546 276 587 b 229 654 244 639 239 649 b 142 546 197 634 154 577 m 132 730 l 124 737 l 278 887 l 329 800 "},"":{"ha":444,"x_min":0,"x_max":0,"o":"m 409 118 b 417 107 413 116 417 107 b 294 13 383 82 337 45 b 240 6 277 0 261 -3 b 36 260 127 53 60 138 b 28 359 29 293 27 326 b 28 363 28 360 28 362 b 29 363 28 363 28 363 b 90 546 32 428 53 491 b 281 715 138 616 210 673 b 322 676 293 710 304 693 b 409 540 348 632 383 584 b 428 497 416 528 420 515 b 357 452 401 480 379 466 b 126 299 300 417 192 342 b 141 253 130 284 135 268 b 266 108 169 186 198 134 b 377 110 299 95 344 94 b 409 118 391 117 401 127 m 144 546 b 118 334 116 473 106 406 b 341 483 180 368 318 461 b 327 508 338 492 332 499 b 255 625 305 546 277 587 b 231 654 246 639 240 649 b 144 546 198 634 155 577 m 103 723 l 94 733 l 224 877 l 232 877 l 362 733 l 353 723 l 228 784 "},"":{"ha":443,"x_min":0,"x_max":0,"o":"m 408 118 b 416 107 412 116 416 107 b 293 13 382 82 335 45 b 239 6 275 0 260 -3 b 34 260 125 53 58 138 b 27 359 28 293 25 326 b 27 363 27 360 27 362 b 27 363 27 363 27 363 b 89 546 31 428 51 491 b 280 715 136 616 209 673 b 320 676 291 710 302 693 b 408 540 347 632 382 584 b 427 497 415 528 419 515 b 355 452 400 480 377 466 b 125 299 299 417 191 342 b 140 253 129 284 134 268 b 265 108 167 186 196 134 b 376 110 297 95 343 94 b 408 118 389 117 400 127 m 142 546 b 117 334 115 473 105 406 b 339 483 179 368 316 461 b 326 508 337 492 331 499 b 253 625 304 546 276 587 b 229 654 244 639 239 649 b 142 546 197 634 154 577 m 142 753 b 91 804 114 753 91 776 b 142 856 91 832 114 856 b 193 804 170 856 193 832 b 142 753 193 776 170 753 m 311 753 b 260 804 283 753 260 776 b 311 856 260 832 283 856 b 363 804 339 856 363 832 b 311 753 363 776 340 753 "},"":{"ha":257,"x_min":0,"x_max":0,"o":"m 175 118 b 238 65 175 102 238 65 b 182 5 212 36 207 28 b 169 0 177 0 177 -1 b 74 71 166 1 74 62 b 73 263 73 99 73 229 b 73 419 73 315 73 367 b 74 473 73 435 74 457 b 76 589 75 497 76 564 b 22 651 76 604 68 610 b 79 711 48 680 54 688 b 92 715 84 715 84 716 b 173 644 95 715 173 653 b 175 263 174 529 175 393 b 175 118 175 243 175 127 m 227 730 l 26 800 l 77 887 l 235 737 "},"":{"ha":256,"x_min":0,"x_max":0,"o":"m 175 118 b 238 65 175 102 238 65 b 182 5 212 36 207 28 b 169 0 177 0 177 -1 b 74 71 166 1 74 62 b 73 263 73 99 73 229 b 73 419 73 315 73 367 b 74 473 73 435 74 457 b 76 589 75 497 76 564 b 22 651 76 604 68 610 b 79 711 48 680 54 688 b 92 715 84 715 84 716 b 173 644 95 715 173 653 b 175 263 174 529 175 393 b 175 118 175 243 175 127 m 36 730 l 27 737 l 181 887 l 233 800 "},"":{"ha":257,"x_min":0,"x_max":0,"o":"m 175 118 b 239 65 175 102 239 65 b 182 5 213 36 207 28 b 169 0 177 0 178 -1 b 74 71 166 1 74 62 b 74 263 74 99 74 229 b 74 419 74 315 74 367 b 75 473 74 435 74 457 b 76 589 76 497 76 564 b 23 651 76 604 69 610 b 79 711 49 680 55 688 b 92 715 84 715 84 716 b 174 644 95 715 174 653 b 175 263 175 529 175 393 b 175 118 176 243 175 127 m 264 733 l 256 723 l 131 784 l 6 723 l -3 733 l 127 877 l 135 877 "},"":{"ha":256,"x_min":0,"x_max":0,"o":"m 175 118 b 239 65 175 102 239 65 b 182 5 213 36 207 28 b 169 0 177 0 177 -1 b 74 71 166 1 74 62 b 73 263 74 99 73 229 b 74 419 73 315 74 367 b 75 473 74 435 74 457 b 76 589 75 497 76 564 b 22 651 76 604 68 610 b 79 711 48 680 54 688 b 92 715 84 715 84 716 b 174 644 95 715 174 653 b 175 263 174 529 175 393 b 175 118 176 243 175 127 m 97 804 b 46 753 97 776 74 753 b -6 804 18 753 -6 776 b 46 856 -6 832 18 856 b 97 804 74 856 97 832 m 215 856 b 267 804 243 856 267 832 b 215 753 267 776 244 753 b 164 804 187 753 164 776 b 215 856 164 832 187 856 "},"":{"ha":528,"x_min":0,"x_max":0,"o":"m 448 118 b 510 65 448 102 510 65 b 453 5 484 36 478 28 b 440 0 448 0 449 -1 b 345 71 437 1 345 62 b 344 141 345 92 345 116 b 344 141 344 141 344 141 b 344 156 344 146 344 151 b 344 164 344 158 344 161 l 344 164 b 345 419 344 249 345 334 b 346 473 345 435 345 457 b 347 499 346 481 346 487 l 347 499 b 347 581 347 525 346 555 b 327 626 347 605 341 616 b 278 630 316 633 292 639 b 179 563 249 612 207 585 b 175 559 178 562 177 561 b 177 15 176 394 176 153 l 74 15 b 75 419 74 110 75 324 b 76 473 75 435 75 457 b 77 589 77 497 77 564 b 24 651 77 604 70 610 b 80 711 50 680 55 688 b 93 715 85 715 85 716 b 175 644 96 715 175 653 b 175 588 175 627 175 609 b 212 613 190 598 206 609 b 360 715 252 641 347 707 b 423 673 383 704 402 691 b 448 598 441 657 448 624 b 447 513 447 593 447 537 b 447 157 447 395 447 271 b 448 118 447 140 448 126 m 147 723 l 136 726 l 136 729 b 214 839 138 767 138 839 b 274 822 241 839 252 832 b 333 802 296 812 307 802 b 386 848 359 802 373 811 l 387 851 l 398 848 l 398 845 b 319 735 395 807 395 735 b 259 752 293 735 282 742 b 200 773 237 763 227 773 b 148 726 174 773 161 763 "},"":{"ha":474,"x_min":0,"x_max":0,"o":"m 418 505 b 397 170 458 391 454 277 b 271 22 365 111 326 62 b 185 19 235 -5 220 -8 b 164 36 179 23 169 31 b 42 458 35 163 2 320 b 143 629 61 521 97 579 b 248 716 173 661 200 694 b 300 675 265 702 285 690 b 418 505 351 626 394 574 m 312 105 b 374 323 364 177 382 241 b 259 580 365 421 326 506 b 215 617 246 594 231 606 b 169 615 193 633 186 634 b 150 590 162 607 156 599 b 99 387 111 532 97 467 b 128 266 102 351 111 308 b 250 92 155 198 194 140 b 312 105 278 69 288 77 m 332 730 l 131 800 l 182 887 l 340 737 "},"":{"ha":474,"x_min":0,"x_max":0,"o":"m 418 505 b 397 170 458 391 454 277 b 271 22 365 111 326 62 b 185 19 235 -5 220 -8 b 164 36 179 23 169 31 b 42 458 35 163 2 320 b 143 629 61 521 97 579 b 248 716 173 661 200 694 b 300 675 265 702 285 690 b 418 505 351 626 394 574 m 312 105 b 374 323 364 177 382 241 b 259 580 365 421 326 506 b 215 617 246 594 231 606 b 169 615 193 633 186 634 b 150 590 162 607 156 599 b 99 387 111 532 97 467 b 128 266 102 351 111 308 b 250 92 155 198 194 140 b 312 105 278 69 288 77 m 141 730 l 133 737 l 287 887 l 338 800 "},"":{"ha":475,"x_min":0,"x_max":0,"o":"m 420 505 b 399 170 460 391 456 277 b 272 22 367 111 328 62 b 186 19 237 -5 222 -8 b 166 36 180 23 171 31 b 44 458 36 163 4 320 b 145 629 62 521 99 579 b 250 716 174 661 201 694 b 302 675 267 702 287 690 b 420 505 353 626 396 574 m 313 105 b 375 323 365 177 383 241 b 261 580 366 421 328 506 b 217 617 248 594 232 606 b 170 615 194 633 187 634 b 151 590 163 607 157 599 b 101 387 113 532 99 467 b 129 266 103 351 112 308 b 252 92 157 198 195 140 b 313 105 280 69 289 77 m 112 723 l 103 733 l 233 877 l 241 877 l 371 733 l 362 723 l 237 784 "},"":{"ha":475,"x_min":0,"x_max":0,"o":"m 420 505 b 399 170 460 391 456 277 b 272 22 367 111 328 62 b 186 19 237 -5 222 -8 b 166 36 180 23 171 31 b 44 458 36 163 4 320 b 145 629 62 521 99 579 b 250 716 174 661 201 694 b 302 675 267 702 287 690 b 420 505 353 626 396 574 m 313 105 b 376 323 365 177 383 241 b 261 580 366 421 328 506 b 217 617 248 594 232 606 b 170 615 194 633 187 634 b 151 590 163 607 157 599 b 101 387 113 532 99 467 b 129 266 103 351 112 308 b 252 92 157 198 195 140 b 313 105 280 69 289 77 m 117 723 l 106 726 l 106 729 b 184 839 108 767 109 839 b 244 822 211 839 222 832 b 303 802 266 812 277 802 b 356 848 329 802 343 811 l 357 851 l 368 848 l 368 845 b 290 735 366 807 365 735 b 230 752 263 735 252 742 b 171 773 207 763 197 773 b 118 726 145 773 131 763 "},"":{"ha":474,"x_min":0,"x_max":0,"o":"m 418 505 b 397 170 458 391 454 277 b 271 22 365 111 326 62 b 185 19 235 -5 220 -8 b 164 36 179 23 169 31 b 42 458 35 163 2 320 b 143 629 61 521 97 579 b 248 716 173 661 200 694 b 300 675 265 702 285 690 b 418 505 351 626 394 574 m 312 105 b 374 323 364 177 382 241 b 259 580 365 421 326 506 b 215 617 246 594 231 606 b 169 615 193 633 186 634 b 150 590 162 607 156 599 b 99 387 111 532 97 467 b 128 266 102 351 111 308 b 250 92 155 198 194 140 b 312 105 278 69 288 77 m 151 753 b 99 804 123 753 99 776 b 151 856 99 832 123 856 b 202 804 179 856 202 832 b 151 753 202 776 179 753 m 320 753 b 269 804 292 753 269 776 b 320 856 269 832 292 856 b 372 804 348 856 372 832 b 320 753 372 776 349 753 "},"":{"ha":513,"x_min":0,"x_max":0,"o":"m 434 127 b 488 65 434 111 441 106 b 431 5 462 36 456 28 b 418 0 426 0 426 -1 b 336 71 415 1 336 62 b 336 122 336 87 336 104 b 310 103 325 114 314 106 b 162 0 269 75 174 8 b 98 43 138 11 119 24 b 74 117 80 59 73 92 b 74 202 74 123 74 178 b 76 536 74 316 75 426 l 75 536 b 76 560 76 544 76 552 b 76 560 76 560 76 560 b 76 589 76 572 76 582 b 22 651 76 604 68 610 b 79 711 48 680 54 688 b 92 715 84 715 84 716 b 173 644 95 715 173 653 b 174 567 174 619 174 593 b 174 567 174 567 174 567 b 174 536 174 557 174 547 l 174 536 b 175 298 174 456 175 381 b 175 243 175 282 176 259 b 175 217 175 235 175 228 l 175 217 b 175 134 175 191 175 160 b 194 90 174 110 180 99 b 244 86 205 83 229 77 b 336 151 270 103 308 130 b 335 701 335 316 335 562 l 437 701 b 436 297 437 606 436 392 b 435 243 436 281 436 259 b 434 127 434 218 434 152 m 351 730 l 150 800 l 201 887 l 359 737 "},"":{"ha":513,"x_min":0,"x_max":0,"o":"m 434 127 b 488 65 434 111 442 106 b 431 5 462 36 456 28 b 418 0 426 0 426 -1 b 336 71 415 1 336 62 b 336 122 336 87 336 104 b 310 103 325 114 314 106 b 162 0 269 75 174 8 b 98 43 138 11 119 24 b 74 117 80 59 73 92 b 74 202 74 123 74 178 b 76 536 74 316 75 426 l 75 536 b 76 560 76 544 76 552 b 76 560 76 560 76 560 b 76 589 76 572 76 582 b 22 651 76 604 68 610 b 79 711 48 680 54 688 b 92 715 84 715 84 716 b 173 644 95 715 173 653 b 174 567 174 619 174 593 b 174 567 174 567 174 567 b 174 536 174 557 174 547 l 174 536 b 175 298 174 456 175 381 b 175 243 175 282 176 259 b 175 217 175 235 175 228 l 175 217 b 175 134 175 191 175 160 b 194 90 174 110 180 99 b 244 86 205 83 229 77 b 336 151 270 103 308 130 b 335 701 335 316 335 562 l 437 701 b 436 297 437 606 436 392 b 435 243 436 281 436 259 b 434 127 434 218 434 152 m 160 730 l 152 737 l 306 887 l 358 800 "},"":{"ha":513,"x_min":0,"x_max":0,"o":"m 434 127 b 488 65 434 111 442 106 b 431 5 462 36 456 28 b 418 0 426 0 426 -1 b 336 71 415 1 336 62 b 336 122 336 87 336 104 b 310 103 325 114 314 106 b 162 0 269 75 174 8 b 98 43 138 11 119 24 b 74 117 80 59 73 92 b 74 202 74 123 74 178 b 76 536 74 316 75 426 l 75 536 b 76 560 75 544 76 552 b 76 560 76 560 76 560 b 76 589 76 572 76 582 b 22 651 76 604 68 610 b 79 711 48 680 54 688 b 92 715 84 715 84 716 b 173 644 95 715 173 653 b 174 567 174 619 174 593 b 174 567 174 567 174 567 b 174 536 174 557 174 547 l 174 536 b 175 298 174 456 175 381 b 175 243 175 282 176 259 b 175 217 175 235 175 228 l 175 217 b 175 134 175 191 175 160 b 194 90 174 110 180 99 b 244 86 205 83 229 77 b 336 151 270 103 308 130 b 335 701 335 316 335 562 l 437 701 b 436 297 437 606 436 392 b 435 243 436 281 436 259 b 434 127 434 218 434 152 m 130 723 l 121 733 l 251 877 l 259 877 l 388 733 l 380 723 l 255 784 "},"":{"ha":513,"x_min":0,"x_max":0,"o":"m 434 127 b 488 65 434 111 442 106 b 431 5 462 36 456 28 b 418 0 426 0 426 -1 b 336 71 415 1 336 62 b 336 122 336 87 336 104 b 310 103 325 114 314 106 b 162 0 269 75 174 8 b 98 43 138 11 119 24 b 74 117 80 59 73 92 b 74 202 74 123 74 178 b 76 536 74 316 75 426 l 75 536 b 76 560 75 544 76 552 b 76 560 76 560 76 560 b 76 589 76 572 76 582 b 22 651 76 604 68 610 b 79 711 48 680 54 688 b 92 715 84 715 84 716 b 173 644 95 715 173 653 b 174 567 174 619 174 593 b 174 567 174 567 174 567 b 174 536 174 557 174 547 l 174 536 b 175 298 174 456 175 381 b 175 243 175 282 176 259 b 175 217 175 235 175 228 l 175 217 b 175 134 175 191 175 160 b 194 90 174 110 180 99 b 244 86 205 83 229 77 b 336 151 270 103 308 130 b 335 701 335 316 335 562 l 437 701 b 436 297 437 606 436 392 b 435 243 436 281 436 259 b 434 127 434 218 434 152 m 170 753 b 119 804 142 753 119 776 b 170 856 119 832 142 856 b 222 804 198 856 222 832 b 170 753 222 776 199 753 m 340 753 b 288 804 311 753 288 776 b 340 856 288 832 312 856 b 391 804 367 856 391 832 b 340 753 391 776 368 753 "},"":{"ha":492,"x_min":0,"x_max":0,"o":"m 408 621 b 455 334 456 531 475 435 b 322 69 435 236 386 146 b 256 -5 302 45 282 20 b 256 -5 256 -5 256 -5 b 220 -41 245 -17 233 -29 b 50 -155 171 -89 112 -125 b 35 -160 46 -158 40 -159 b -7 -132 12 -165 -3 -155 b -8 -106 -9 -124 -9 -115 b 17 -76 -7 -90 0 -79 b 69 -70 34 -74 51 -71 b 229 -8 129 -66 182 -44 b 241 3 233 -5 237 -1 b 239 4 240 3 239 4 b 106 84 193 27 152 62 b 72 121 81 96 72 105 b 72 158 72 127 72 153 b 73 418 72 248 73 328 b 74 472 73 434 73 456 b 75 588 75 497 75 563 b 22 650 75 604 68 609 b 78 710 48 679 54 687 b 91 715 83 715 83 716 b 173 644 94 714 173 653 b 175 157 174 493 174 318 b 175 157 175 157 175 157 b 200 131 179 140 188 138 b 277 80 221 119 257 90 b 324 110 293 73 306 81 b 351 157 333 125 346 140 b 385 311 366 207 384 257 b 362 488 387 371 379 430 b 271 651 346 545 320 614 b 255 667 268 653 257 661 b 320 709 274 686 297 698 b 342 712 327 713 336 718 b 408 621 359 693 396 644 m 132 729 l 124 736 l 278 886 l 330 799 "},"":{"ha":486,"x_min":0,"x_max":0,"o":"m 443 537 b 435 282 462 452 463 366 b 326 86 412 211 377 148 b 274 20 307 66 292 42 b 221 9 257 0 244 -2 b 154 44 199 20 175 34 b 154 -44 154 16 154 -17 b 154 -101 154 -67 154 -99 b 218 -153 154 -116 218 -153 l 54 -208 b 55 -112 54 -203 55 -144 l 55 -112 b 56 33 56 -112 56 12 b 58 506 56 40 58 386 b 59 846 58 542 59 834 b 4 908 59 861 50 867 b 61 968 30 937 36 945 b 74 972 66 972 65 973 b 155 901 77 972 155 910 b 156 619 156 875 156 728 l 157 604 b 190 628 167 609 184 624 b 313 717 232 660 270 684 b 352 697 327 717 346 704 b 443 537 397 649 429 603 m 322 127 b 362 435 374 225 374 329 b 341 526 358 466 352 497 b 298 610 330 556 316 584 b 223 624 279 640 252 645 b 182 591 207 612 197 603 b 156 556 166 577 158 573 b 156 530 156 548 156 540 b 156 506 156 520 156 512 b 157 175 156 474 157 206 l 157 169 b 157 158 157 165 157 162 b 175 130 157 145 163 135 b 274 89 206 116 242 102 b 307 100 287 84 299 89 b 322 127 313 108 317 118 "},"":{"ha":492,"x_min":0,"x_max":0,"o":"m 408 621 b 455 334 456 531 475 435 b 322 69 435 236 386 146 b 256 -5 302 45 282 20 b 256 -5 256 -5 256 -5 b 220 -41 245 -17 233 -29 b 50 -155 171 -89 112 -125 b 35 -160 46 -158 40 -159 b -7 -132 12 -165 -3 -155 b -8 -106 -9 -124 -9 -115 b 17 -76 -7 -90 0 -79 b 69 -70 34 -74 51 -71 b 229 -8 129 -66 182 -44 b 241 3 233 -5 237 -1 b 239 4 240 3 239 4 b 106 84 193 27 152 62 b 72 121 81 96 72 105 b 72 158 72 127 72 153 b 73 418 72 248 73 328 b 74 472 73 434 73 456 b 75 588 75 497 75 563 b 22 650 75 604 68 609 b 78 710 48 679 54 687 b 91 715 83 715 83 716 b 173 644 94 714 173 653 b 175 157 174 493 174 318 b 175 157 175 157 175 157 b 200 131 179 140 188 138 b 277 80 221 119 257 90 b 324 110 293 73 306 81 b 351 157 333 125 346 140 b 385 311 366 207 384 257 b 362 488 387 371 379 430 b 271 651 346 545 320 614 b 255 667 268 653 257 661 b 320 709 274 686 297 698 b 342 712 327 713 336 718 b 408 621 359 693 396 644 m 143 752 b 91 803 114 752 91 775 b 143 856 91 832 115 856 b 194 803 170 856 194 832 b 143 752 194 775 171 752 m 312 752 b 260 803 284 752 260 775 b 312 856 260 832 284 856 b 363 803 340 856 363 832 b 312 752 363 775 340 752 "},"":{"ha":567,"x_min":0,"x_max":0,"o":"m 542 137 b 543 121 548 132 548 128 b 472 13 526 98 489 40 b 416 1 469 9 437 1 b 191 64 328 0 265 14 b 26 359 75 142 43 223 b 86 653 14 452 44 572 b 241 870 126 731 162 791 b 258 887 245 874 255 883 b 259 887 258 887 259 887 b 342 966 293 919 319 948 b 378 963 357 978 361 974 b 562 820 430 929 520 854 b 485 737 562 820 505 759 b 444 771 468 749 458 761 b 319 870 408 801 351 843 b 277 869 300 886 296 885 b 174 740 234 830 203 788 b 128 361 107 629 95 485 b 393 118 164 223 246 141 b 506 123 420 113 474 110 b 542 137 520 128 529 130 m 289 983 l 159 1127 l 168 1137 l 293 1076 l 418 1137 l 426 1127 l 297 983 "},"":{"ha":426,"x_min":0,"x_max":0,"o":"m 408 119 b 416 107 412 116 416 107 b 293 13 382 82 335 45 b 239 6 275 0 260 -4 b 34 260 125 52 58 138 b 89 546 15 359 31 461 b 280 715 136 616 209 673 b 405 587 308 703 373 618 b 387 570 397 579 393 574 b 315 553 340 535 342 533 b 227 651 290 570 252 637 b 142 546 194 632 154 577 b 140 253 104 446 100 357 b 265 108 167 186 196 134 b 376 110 297 95 343 94 b 408 119 389 117 400 127 m 217 739 l 88 883 l 96 893 l 221 832 l 346 893 l 355 883 l 225 739 "},"":{"ha":646,"x_min":0,"x_max":0,"o":"m 591 698 b 610 414 624 613 620 506 b 513 142 604 336 553 208 b 333 4 472 76 395 17 b 285 0 306 -2 312 0 b 196 15 242 0 218 15 b 117 -1 149 14 121 -2 b 116 18 116 3 116 12 b 118 379 117 139 117 259 b 117 625 118 458 117 547 b 116 657 117 636 117 646 b 69 744 114 705 111 715 b 166 794 86 753 150 785 b 222 820 183 803 219 820 b 229 789 230 817 229 807 b 227 266 229 679 228 434 b 227 181 227 214 226 233 b 227 138 227 167 227 155 b 293 31 227 68 261 32 b 472 165 359 31 426 86 b 538 412 514 237 538 331 b 524 564 538 466 534 516 b 424 755 509 637 475 700 b 244 851 373 810 318 840 b 58 844 180 860 119 859 b 8 831 44 841 34 835 b 82 945 24 865 59 916 b 111 963 89 953 101 962 b 437 896 235 973 328 966 b 591 698 514 847 559 781 m 309 983 l 179 1127 l 188 1137 l 313 1076 l 438 1137 l 446 1127 l 317 983 "},"":{"ha":511,"x_min":0,"x_max":0,"o":"m 430 118 b 492 65 430 102 492 65 b 438 5 466 36 463 28 b 425 0 434 0 434 -1 b 330 72 422 1 330 62 b 330 113 330 79 330 94 l 330 113 b 330 113 330 113 330 113 b 296 88 319 107 302 93 b 173 -1 254 57 216 32 b 134 19 159 -1 140 12 b 43 179 89 67 57 114 b 51 435 24 265 23 351 b 160 632 74 507 109 569 b 212 697 179 652 194 676 b 266 709 229 718 242 720 b 330 677 287 698 308 688 b 330 816 330 750 330 804 b 330 869 330 827 329 851 b 284 940 330 904 321 940 b 276 957 281 940 280 947 b 429 958 329 957 384 958 b 430 841 429 913 430 877 b 428 723 430 800 428 764 b 428 273 428 713 428 443 b 430 118 429 254 430 127 m 304 126 b 330 160 320 139 327 143 b 330 261 330 186 330 221 b 330 263 330 261 330 262 l 330 263 b 330 543 330 344 330 447 b 330 543 330 543 330 543 b 330 546 330 544 330 545 b 330 559 330 550 330 554 b 312 587 330 572 323 582 b 212 629 280 602 244 616 b 179 618 199 634 187 629 b 164 590 173 609 169 599 b 124 282 112 493 112 388 b 145 190 127 251 134 220 b 188 106 156 161 170 132 b 263 93 207 77 235 71 b 304 126 279 104 289 114 m 451 802 l 443 809 l 597 958 l 649 872 "},"":{"ha":510,"x_min":0,"x_max":0,"o":"m 430 119 b 492 66 430 104 492 66 b 438 6 466 37 463 29 b 425 2 434 2 434 1 b 330 73 422 2 330 63 b 330 114 330 80 330 95 l 330 114 b 330 114 330 114 330 114 b 296 90 319 109 302 94 b 173 0 254 58 216 33 b 134 20 159 0 140 13 b 43 180 89 68 57 115 b 51 436 24 266 23 352 b 160 633 74 508 109 571 b 212 699 179 653 194 677 b 266 710 229 719 242 721 b 330 678 287 699 308 689 b 330 811 330 742 330 792 l 212 811 l 212 835 l 330 835 b 330 870 329 846 329 859 b 284 941 330 905 321 941 b 276 958 281 941 280 948 b 429 960 329 958 384 960 b 430 842 429 914 430 878 b 430 835 430 840 430 837 l 488 835 l 488 811 l 430 811 b 428 725 429 782 428 755 b 428 274 428 714 428 444 b 430 119 429 255 430 129 m 304 127 b 330 161 320 140 327 145 b 330 262 330 187 330 222 b 330 264 330 263 330 263 l 330 264 b 330 544 330 346 330 449 b 330 544 330 544 330 544 b 330 547 330 545 330 546 b 330 560 330 551 330 556 b 312 589 330 573 323 583 b 212 630 280 603 244 617 b 179 619 199 635 187 630 b 164 591 173 610 169 601 b 124 283 112 494 112 389 b 145 191 127 252 134 221 b 188 107 156 162 170 134 b 263 94 207 78 235 73 b 304 127 279 105 289 115 "},"":{"ha":707,"x_min":0,"x_max":0,"o":"m 590 200 b 609 207 593 203 603 215 b 592 161 614 199 596 169 b 528 30 573 126 546 65 b 487 0 519 10 508 0 b 231 45 350 0 298 25 b 59 26 160 65 90 42 b 21 2 46 19 34 9 b 8 8 18 1 10 4 b 7 21 5 11 5 18 b 27 55 13 30 20 47 b 138 227 73 107 117 161 b 139 397 157 284 157 341 b 117 469 131 420 124 444 b 85 594 109 498 91 566 b 116 809 71 658 76 746 b 150 848 116 809 140 839 b 183 881 150 848 179 878 b 268 966 225 919 241 945 b 304 963 283 978 287 974 b 491 816 356 929 449 851 b 418 733 491 816 438 755 b 380 768 401 745 394 758 b 265 865 344 798 297 839 b 218 880 246 881 237 896 b 157 815 190 858 175 841 b 155 765 149 800 152 784 b 155 765 155 765 155 765 b 203 587 160 727 188 638 b 239 469 204 587 238 471 b 253 405 244 448 248 426 b 217 251 266 352 243 296 b 158 163 199 220 179 192 b 86 82 154 158 119 124 b 181 129 113 93 158 120 b 306 142 222 145 263 149 b 426 116 340 136 379 122 b 590 200 488 108 521 117 m 515 819 l 507 826 l 661 976 l 713 889 "},"":{"ha":238,"x_min":0,"x_max":0,"o":"m 156 118 b 220 65 156 102 220 65 b 163 5 194 36 188 28 b 151 0 159 0 159 -1 b 55 71 147 1 55 62 b 55 227 55 99 55 194 l 55 227 b 55 816 55 455 55 786 b 55 869 55 827 54 851 b 9 940 55 904 46 940 b 1 957 6 940 5 947 b 154 958 54 957 109 958 b 155 841 154 913 155 877 b 153 723 155 800 153 764 b 156 186 153 714 156 392 b 156 118 156 167 156 127 m 176 802 l 168 809 l 322 958 l 374 872 "},"":{"ha":617,"x_min":0,"x_max":0,"o":"m 616 207 b 599 161 621 199 603 168 b 535 29 580 126 553 65 b 494 0 525 10 515 0 b 238 44 357 0 305 25 b 66 26 167 65 97 42 b 27 2 53 19 41 9 b 14 7 25 1 17 4 b 14 21 12 11 12 18 b 34 55 20 30 27 47 b 145 227 80 107 124 161 b 146 396 164 283 164 341 b 124 469 138 420 131 444 b 107 534 120 484 113 509 l 34 469 l 34 506 l 99 565 b 92 594 96 576 94 587 b 123 809 78 658 83 746 b 157 848 123 809 147 839 b 190 880 157 848 186 878 b 275 966 232 919 248 945 b 311 963 290 978 294 974 b 498 816 363 929 456 851 b 425 733 498 816 445 755 b 387 767 408 745 401 758 b 272 865 351 797 304 838 b 225 880 253 881 244 896 b 164 815 197 857 182 841 b 162 765 156 800 159 784 b 162 765 162 765 162 765 b 192 648 165 740 179 692 l 310 753 l 310 716 l 201 618 b 210 586 204 607 207 596 b 246 469 211 586 245 471 b 260 405 251 448 255 426 b 224 251 273 352 250 296 b 165 163 206 220 186 192 b 93 82 161 158 126 124 b 188 129 119 93 165 119 b 313 142 229 145 270 149 b 433 116 347 136 386 122 b 597 200 495 107 528 117 b 616 207 600 203 610 215 "},"":{"ha":274,"x_min":0,"x_max":0,"o":"m 265 736 l 187 682 b 189 186 188 588 189 350 b 190 118 190 167 190 127 b 254 65 190 102 254 65 b 197 5 228 36 222 28 b 184 0 192 0 192 -1 b 89 72 181 1 89 62 b 88 227 89 99 88 194 l 88 227 b 88 615 88 348 88 497 l 17 566 l 17 600 l 88 649 b 88 816 88 738 88 804 b 88 869 88 827 88 851 b 43 940 88 904 79 940 b 35 957 40 940 38 947 b 187 958 88 957 143 958 b 189 841 187 913 189 877 b 187 723 189 800 187 764 b 187 716 187 723 187 720 l 265 770 "},"":{"ha":674,"x_min":0,"x_max":0,"o":"m 637 108 b 655 91 643 105 660 97 b 588 15 634 67 612 37 b 563 5 575 3 578 -6 b 520 28 556 10 527 24 b 470 94 466 64 470 67 b 470 113 470 95 470 103 b 469 113 469 113 469 113 b 469 119 469 115 469 117 b 469 168 469 139 469 165 b 469 170 469 169 469 169 b 469 237 469 188 468 203 b 470 443 470 306 470 374 b 469 793 469 560 470 676 l 470 793 l 470 830 b 470 863 470 841 470 852 l 470 929 b 400 887 448 917 417 898 b 221 771 350 852 270 805 b 201 754 211 764 205 760 b 202 412 202 640 201 526 b 201 65 202 296 201 181 b 201 15 201 52 202 29 l 92 15 b 91 237 92 76 90 176 b 92 443 92 306 92 374 b 92 817 92 568 93 692 b 92 865 92 832 93 850 b 41 934 89 898 76 923 b 17 938 32 936 29 936 b 17 958 17 948 13 958 l 201 958 l 201 854 b 201 853 201 854 201 853 b 201 833 201 847 201 840 b 201 792 201 819 201 806 b 205 794 202 793 204 793 b 262 827 226 804 246 818 b 434 937 315 859 382 901 b 470 958 444 944 460 958 l 579 958 l 579 854 b 579 853 579 854 579 853 b 579 833 579 847 578 840 b 579 412 580 692 579 553 b 579 171 579 331 579 251 b 579 171 579 171 579 171 b 579 166 579 170 579 168 b 579 153 579 162 579 157 b 595 132 579 144 583 139 b 637 108 608 124 623 115 m 332 983 l 202 1127 l 211 1137 l 336 1076 l 461 1137 l 469 1127 l 340 983 "},"":{"ha":528,"x_min":0,"x_max":0,"o":"m 448 118 b 510 65 448 102 510 65 b 453 5 484 36 478 28 b 440 0 448 0 448 -1 b 345 72 437 1 345 62 b 344 141 345 92 345 116 b 344 141 344 141 344 141 b 344 156 344 146 344 151 b 344 164 344 158 344 161 l 344 164 b 345 419 344 249 345 334 b 346 473 345 435 345 457 b 347 499 346 481 346 487 l 347 499 b 347 581 347 525 346 555 b 327 626 347 605 341 617 b 278 630 316 633 292 639 b 179 563 249 612 207 585 b 175 559 178 562 177 561 b 177 15 176 394 176 153 l 74 15 b 75 419 74 110 75 324 b 76 473 75 435 75 457 b 77 589 77 497 77 564 b 24 651 77 604 70 610 b 80 711 50 680 55 688 b 93 715 85 715 85 716 b 175 644 96 715 175 653 b 175 588 175 627 175 609 b 212 613 190 598 206 609 b 360 716 252 641 347 707 b 423 673 383 704 402 691 b 448 598 441 657 448 624 b 447 513 447 593 447 537 b 447 157 447 395 447 271 b 448 118 447 140 448 126 m 263 739 l 133 883 l 142 893 l 267 832 l 392 893 l 400 883 l 271 739 "},"":{"ha":1057,"x_min":0,"x_max":0,"o":"m 1043 183 b 1026 137 1049 176 1030 145 b 966 29 1007 102 984 65 b 925 0 956 10 946 0 b 659 44 788 0 726 25 b 514 26 588 65 545 42 b 475 2 500 19 489 9 b 462 7 472 1 465 4 b 462 21 460 11 459 18 b 481 55 467 30 475 47 b 566 227 528 107 544 161 b 568 234 567 229 567 232 b 516 156 553 208 536 182 b 359 13 472 99 415 56 b 291 10 337 -4 315 -4 b 112 189 216 55 157 116 b 58 296 91 223 74 259 b 25 521 27 368 20 443 b 81 711 30 588 53 650 b 252 919 120 795 183 859 b 303 955 266 931 286 946 b 382 958 337 975 349 979 b 496 863 422 932 466 900 b 582 728 530 820 560 776 b 726 873 634 781 694 841 b 823 966 768 911 797 945 b 859 963 839 978 842 974 b 1043 819 911 929 1001 854 b 967 737 1043 819 987 758 b 925 771 949 748 940 761 b 800 877 889 801 832 850 b 765 876 782 892 784 891 b 609 664 717 837 621 693 b 610 658 609 663 610 659 b 609 658 610 658 610 658 b 627 580 617 634 623 608 b 828 582 709 581 818 582 b 936 633 846 582 907 627 b 859 472 914 583 883 503 b 778 518 831 488 806 518 b 635 518 752 518 687 518 b 651 251 640 470 671 286 b 596 163 633 220 617 192 b 547 86 592 158 580 127 b 612 122 574 96 589 113 b 747 142 653 139 704 149 b 844 111 781 136 811 120 b 990 149 885 100 947 104 b 1024 176 997 156 1017 169 b 1043 183 1027 179 1037 191 m 537 349 b 539 403 539 367 539 385 b 475 682 537 502 516 591 b 320 889 440 759 387 837 b 249 886 291 911 279 916 b 121 605 175 810 125 714 b 174 331 117 509 136 419 b 352 98 213 237 269 158 b 427 97 383 77 399 73 b 496 191 456 123 479 156 b 537 349 520 240 533 294 "},"":{"ha":779,"x_min":0,"x_max":0,"o":"m 744 118 b 752 107 748 116 752 107 b 629 13 718 82 671 45 b 575 6 611 0 596 -3 b 398 172 491 40 433 96 b 397 170 398 171 397 171 b 271 22 365 111 326 62 b 185 19 235 -5 220 -9 b 164 36 179 23 169 31 b 42 458 35 162 2 320 b 143 629 61 521 97 579 b 248 716 173 661 200 693 b 300 675 265 702 285 690 b 411 524 347 631 386 584 b 425 546 415 531 420 539 b 616 715 472 616 545 673 b 656 675 627 710 638 693 b 744 540 683 631 718 584 b 763 497 750 528 755 515 b 691 452 736 480 713 466 b 460 299 635 417 527 342 b 475 252 465 284 469 268 b 601 108 503 186 532 134 b 712 110 633 95 679 94 b 744 118 725 117 736 127 m 478 546 b 453 334 450 473 441 406 b 675 483 515 368 652 461 b 662 508 672 491 667 499 b 589 625 640 545 612 587 b 565 654 580 638 575 649 b 478 546 533 634 490 577 m 312 105 b 374 323 364 176 382 241 b 259 580 365 421 326 506 b 215 617 246 594 231 606 b 169 615 193 632 186 634 b 150 590 162 607 156 598 b 99 387 111 532 97 467 b 128 266 102 351 111 308 b 250 92 155 198 194 140 b 312 105 278 69 288 77 "},"":{"ha":589,"x_min":0,"x_max":0,"o":"m 534 429 b 547 218 579 367 574 288 b 462 113 529 177 493 141 b 343 14 416 71 396 46 b 262 18 310 -6 293 -4 b 6 192 190 61 6 192 b 113 259 34 223 60 258 b 325 108 169 226 296 123 b 403 98 361 91 374 69 b 453 148 423 114 436 128 b 447 354 495 211 493 295 b 325 453 410 399 373 429 b 111 603 280 481 136 569 b 104 810 60 670 52 729 b 235 929 138 862 194 898 b 294 965 252 942 277 954 b 333 967 310 975 317 975 b 534 833 351 958 498 853 b 432 779 540 829 483 758 b 269 891 426 773 320 862 b 210 882 244 905 232 899 b 145 817 178 857 160 841 b 139 754 133 797 135 774 b 179 696 144 732 155 715 b 393 554 213 673 359 571 b 534 429 450 521 495 482 m 283 984 l 153 1127 l 162 1137 l 287 1076 l 412 1137 l 420 1127 l 291 984 "},"":{"ha":433,"x_min":0,"x_max":0,"o":"m 408 254 b 393 174 413 231 407 203 b 261 20 366 120 307 66 b 190 17 237 1 237 -11 b 17 139 124 55 70 102 b 70 190 32 175 54 185 b 93 194 78 191 91 194 b 252 75 137 162 242 80 b 325 117 271 67 298 82 b 322 251 365 180 350 223 b 141 386 261 300 180 365 b 87 607 35 453 28 521 b 220 715 127 654 171 687 b 378 597 252 698 353 617 b 338 557 366 570 355 562 b 277 569 323 550 290 559 b 177 646 249 586 191 637 b 122 618 159 657 144 642 b 149 498 83 570 98 532 b 310 381 175 480 260 416 b 408 254 362 344 401 311 m 209 723 l 80 867 l 88 877 l 213 815 l 338 877 l 347 867 l 217 723 "},"":{"ha":643,"x_min":0,"x_max":0,"o":"m 641 916 b 646 908 643 913 646 909 b 569 760 620 870 598 807 b 360 865 477 783 418 846 b 195 662 313 822 250 762 b 149 511 170 609 156 556 b 231 180 130 383 148 279 b 422 80 284 118 327 86 b 552 126 502 74 540 118 l 553 118 b 338 0 528 62 477 0 b 238 23 308 0 272 6 b 107 134 177 52 148 79 b 35 340 59 199 41 261 b 151 686 24 473 90 594 b 328 877 194 746 304 858 b 216 895 328 877 275 903 b 37 781 129 882 51 795 b 52 818 39 800 49 812 b 257 968 88 881 168 958 b 381 961 303 976 337 973 b 497 909 409 954 471 918 b 631 916 537 894 592 896 b 641 916 634 918 638 916 m 335 983 l 206 1127 l 215 1137 l 339 1076 l 464 1137 l 473 1127 l 344 983 "},"":{"ha":301,"x_min":0,"x_max":0,"o":"m 189 878 b 189 701 189 839 189 775 l 291 701 l 291 650 l 189 650 b 188 297 188 517 188 368 b 187 243 188 281 188 259 b 189 117 186 218 189 141 b 253 65 189 101 253 65 b 196 5 227 36 221 28 b 183 0 191 0 191 -1 b 88 72 180 1 88 62 b 86 650 87 216 87 467 l 15 650 l 15 701 l 86 701 b 86 772 86 727 86 751 b 88 821 86 777 86 821 b 184 929 141 855 154 929 b 185 929 185 929 185 929 b 188 929 187 929 187 929 b 189 878 188 913 189 889 m 210 802 l 202 809 l 356 958 l 408 872 "},"":{"ha":694,"x_min":0,"x_max":0,"o":"m 595 847 b 671 552 645 756 683 657 b 535 204 656 429 601 305 b 147 -152 436 52 309 -67 b 77 -183 124 -164 100 -173 b -9 -160 42 -197 14 -191 b -61 -94 -23 -141 -39 -122 b -7 -90 -36 -92 -22 -90 b 136 -81 41 -91 89 -89 b 315 -5 202 -70 260 -41 b 350 62 337 10 358 37 b 319 149 340 91 330 120 b 154 630 260 316 213 463 b 74 858 127 706 100 781 b 48 906 68 877 59 893 b 12 933 31 924 17 931 b -12 938 4 935 1 935 b -11 957 -12 947 -15 957 l 123 957 b 123 957 123 957 123 957 b 164 926 145 958 157 946 b 197 834 175 895 186 865 b 282 586 225 752 253 669 b 420 189 331 447 370 328 b 444 122 426 171 437 141 b 451 130 449 125 447 126 b 598 464 526 224 581 343 b 545 737 611 557 586 651 b 373 889 510 809 453 865 b 362 891 370 890 364 889 b 354 899 361 892 356 895 b 466 970 389 922 429 950 b 497 962 476 975 487 971 b 595 847 534 931 572 890 m 221 1012 b 170 1064 193 1012 170 1036 b 221 1116 170 1092 193 1116 b 273 1064 249 1116 273 1092 b 221 1012 273 1036 250 1012 m 391 1012 b 339 1064 362 1012 339 1036 b 391 1116 339 1092 363 1116 b 442 1064 419 1116 442 1092 b 391 1012 442 1036 419 1012 "},"":{"ha":738,"x_min":0,"x_max":0,"o":"m 722 973 b 735 950 725 969 735 950 b 727 944 731 946 729 946 b 487 637 654 889 582 828 b 228 177 407 490 308 325 b 126 82 223 169 141 109 b 381 142 196 124 328 142 b 562 113 420 142 459 135 b 696 224 625 100 659 155 b 705 229 697 227 701 230 b 714 219 709 228 714 222 b 640 0 714 196 641 9 b 448 52 613 6 568 40 b 23 7 333 62 129 28 b -14 0 15 5 -6 0 b 3 32 -11 9 -4 25 b 409 668 149 207 358 576 b 559 848 430 707 559 848 b 379 815 505 820 420 815 b 381 815 379 815 380 815 b 378 815 380 815 379 815 b 355 815 364 815 356 815 b 256 838 317 823 281 833 b 181 791 212 847 203 829 b 159 753 175 781 169 771 b 149 775 152 766 148 771 b 237 966 169 837 210 906 b 289 941 250 960 280 944 b 525 893 379 903 429 876 b 704 966 606 907 652 935 b 722 973 710 969 716 971 m 356 984 l 227 1127 l 235 1137 l 360 1076 l 485 1137 l 494 1127 l 365 984 "},"":{"ha":529,"x_min":0,"x_max":0,"o":"m 509 191 b 516 183 512 190 516 186 b 438 0 516 167 439 7 b 289 46 418 5 378 38 b 15 0 203 54 98 24 b 14 0 15 0 15 0 b 5 11 8 -2 2 5 b 10 19 7 15 8 17 b 293 497 173 297 267 449 b 382 628 309 526 382 628 b 230 590 329 600 276 587 b 162 606 189 593 180 601 b 102 574 130 616 119 603 b 85 547 97 567 93 560 b 78 563 81 556 77 560 b 156 718 93 609 135 673 b 183 698 165 714 177 702 b 325 665 219 675 253 662 b 467 707 383 666 428 685 b 494 715 471 710 483 715 b 503 701 505 715 504 703 b 499 693 502 697 501 694 b 157 86 426 646 162 97 b 299 119 181 96 237 118 b 397 109 366 120 358 114 b 502 187 445 103 475 136 b 509 191 503 189 507 191 m 256 723 l 127 867 l 135 877 l 260 815 l 385 877 l 394 867 l 264 723 "},"":{"ha":603,"x_min":0,"x_max":0,"o":"m 28 518 l 55 580 l 573 580 l 547 518 "},"":{"ha":414,"x_min":0,"x_max":0,"o":"m 120 809 b 166 790 142 809 153 803 b 185 739 178 778 185 761 b 163 686 185 718 178 700 b 115 665 149 672 138 665 b 64 690 91 665 78 673 b 43 757 50 706 43 728 b 74 871 43 793 53 831 b 148 972 95 910 115 944 l 164 961 b 116 874 142 928 126 899 b 104 808 106 850 104 828 b 112 809 106 808 109 809 b 120 809 115 809 115 809 m 353 790 b 372 739 366 778 372 761 b 351 686 372 718 365 700 b 302 665 336 672 325 665 b 251 690 278 665 265 673 b 230 757 237 706 230 728 b 261 871 230 793 241 831 b 335 972 282 910 302 944 l 352 961 b 303 874 330 928 313 899 b 291 808 293 850 291 828 b 299 809 294 808 296 809 b 307 809 302 809 302 809 b 353 790 329 809 340 803 "},"":{"ha":414,"x_min":0,"x_max":0,"o":"m 350 948 b 371 880 364 932 371 909 b 340 767 371 844 360 807 b 265 665 319 727 299 693 l 249 677 b 298 763 271 710 287 738 b 310 830 308 788 310 810 b 302 829 307 829 305 829 b 294 828 299 828 299 828 b 248 847 272 828 261 835 b 229 898 235 860 229 877 b 250 951 229 920 236 938 b 299 972 264 965 276 972 b 350 948 323 972 335 964 m 111 972 b 162 948 136 972 148 964 b 183 880 176 932 183 909 b 152 767 183 844 173 807 b 78 665 132 727 112 693 l 62 677 b 110 763 84 710 100 738 b 122 830 121 788 122 810 b 115 829 120 829 117 829 b 107 828 112 828 111 828 b 61 847 84 828 74 835 b 42 898 48 860 42 877 b 63 951 42 920 49 938 b 111 972 77 965 89 972 "},"":{"ha":215,"x_min":0,"x_max":0,"o":"m 155 679 b 177 626 169 665 177 647 b 155 573 177 605 170 587 b 107 552 140 559 129 552 b 59 573 85 552 73 559 b 38 626 45 587 38 605 b 59 679 38 647 45 665 b 107 701 74 694 86 701 b 155 679 128 701 140 694 "}}}
